<?xml version="1.0" standalone="no"?>
<!DOCTYPE svg PUBLIC "-//W3C//DTD SVG 1.1//EN" "http://www.w3.org/Graphics/SVG/1.1/DTD/svg11.dtd" >
<svg xmlns="http://www.w3.org/2000/svg">
<metadata>Generated by IcoMoon</metadata>
<defs>
<font id="icomoon" horiz-adv-x="1024">
<font-face units-per-em="1024" ascent="960" descent="-64" />
<missing-glyph horiz-adv-x="1024" />
<glyph unicode="&#x20;" horiz-adv-x="512" d="" />
<glyph unicode="&#xe900;" glyph-name="header_back" d="M243.917 503.398c147.558 142.746 295.117 285.389 442.675 427.93 60.723 58.778 151.347-36.659 90.317-95.642-131.277-126.976-262.656-253.85-393.933-380.826 131.994-131.379 263.987-262.861 395.981-394.138 60.109-59.802-30.515-155.238-90.419-95.539-148.275 147.456-296.448 295.014-444.621 442.573-24.474 24.576-25.19 71.475 0 95.642v0z" />
<glyph unicode="&#xe901;" glyph-name="arrow_right_samll" d="M366 240.667l196 196-196 196 60 60 256-256-256-256z" />
<glyph unicode="&#xe902;" glyph-name="Document_1hang2lie" d="M78.769 841.846v-787.692h866.462v787.692h-866.462zM472.615 132.923h-315.077v630.154h315.077v-630.154zM866.462 132.923h-315.077v630.154h315.077v-630.154z" />
<glyph unicode="&#xe903;" glyph-name="Document_1hang3lie" d="M59.077 841.846v-787.692h905.846v787.692h-905.846zM334.769 132.923h-196.923v630.154h196.923v-630.154zM610.462 132.923h-196.923v630.154h196.923v-630.154zM886.154 132.923h-196.923v630.154h196.923v-630.154z" />
<glyph unicode="&#xe904;" glyph-name="Document_add" horiz-adv-x="911" d="M825.515 508.899h-311.26v360.881c0 27.066-18.044 45.11-45.11 45.11h-27.066c-27.066 0-45.11-18.044-45.11-45.11v-360.881h-311.26c-27.066 0-45.11-18.044-45.11-45.11v-45.11c0-27.066 18.044-45.11 45.11-45.11h311.26v-360.881c0-27.066 18.044-45.11 45.11-45.11h27.066c27.066 0 45.11 18.044 45.11 45.11v360.881h311.26c27.066 0 45.11 18.044 45.11 45.11v45.11c0 22.555-22.555 45.11-45.11 45.11z" />
<glyph unicode="&#xe905;" glyph-name="Document_biaogebuju" d="M59.077 841.846v-787.692h905.846v787.692h-905.846zM689.231 763.077h196.923v-157.538h-196.923v157.538zM413.538 763.077h196.923v-157.538h-196.923v157.538zM610.462 526.769v-157.538h-196.923v157.538h196.923zM137.846 763.077h196.923v-157.538h-196.923v157.538zM137.846 526.769h196.923v-157.538h-196.923v157.538zM137.846 132.923v157.538h196.923v-157.538h-196.923zM413.538 132.923v157.538h196.923v-157.538h-196.923zM886.154 132.923h-196.923v157.538h196.923v-157.538zM689.231 369.231v157.538h196.923v-157.538h-196.923z" />
<glyph unicode="&#xe906;" glyph-name="Document_cha" d="M791.631 881.231l-295.385-295.385-295.385 295.385c-23.631 23.631-66.954 23.631-90.585 0l-47.262-47.262c-23.631-23.631-23.631-66.954 0-90.585l295.385-295.385-295.385-295.385c-23.631-23.631-23.631-66.954 0-90.585l47.262-47.262c23.631-23.631 66.954-23.631 90.585 0l295.385 295.385 295.385-295.385c23.631-23.631 66.954-23.631 90.585 0l47.262 47.262c23.631 23.631 23.631 66.954 0 90.585l-295.385 295.385 295.385 295.385c23.631 23.631 23.631 66.954 0 90.585l-47.262 47.262c-23.631 23.631-66.954 23.631-90.585 0z" />
<glyph unicode="&#xe907;" glyph-name="Document_chehui" horiz-adv-x="885" d="M488.265 739.603h-220.397l71.205 71.205c27.126 27.126 27.126 71.205 0 98.331s-67.815 27.126-94.94 0l-189.881-189.881c-13.563-13.563-20.344-30.517-20.344-47.47s6.781-33.907 20.344-47.47l186.49-189.881c13.563-13.563 30.517-20.344 47.47-20.344s33.907 6.781 47.47 20.344c27.126 27.126 27.126 71.205 0 98.331l-71.205 71.205h220.397c125.457 0 227.179-101.722 227.179-227.179s-101.722-227.179-227.179-227.179h-308.556c-37.298 0-67.815-30.517-67.815-67.815s30.517-67.815 67.815-67.815h311.947c200.053 0 362.808 162.755 362.808 362.808-3.391 200.053-162.755 362.808-362.808 362.808z" />
<glyph unicode="&#xe908;" glyph-name="Document_cuiban" horiz-adv-x="933" d="M237.268 900.683c-99.902 0-181.073-78.049-181.073-174.829 0-31.22 9.366-62.439 24.976-87.415 68.683 96.78 174.829 168.585 299.707 193.561-34.341 40.585-84.293 68.683-143.61 68.683v0 0zM718.049 900.683c-59.317 0-109.268-28.098-143.61-68.683 124.878-24.976 231.024-96.78 299.707-193.561v0 0 0c15.61 24.976 24.976 56.195 24.976 87.415 0 0 0 0 0 0 0 96.78-81.171 174.829-181.073 174.829v0 0zM477.659 782.049c-234.146 0-421.463-184.195-421.463-408.976s187.317-408.976 421.463-408.976c234.146 0 421.463 184.195 421.463 408.976s-187.317 408.976-421.463 408.976v0zM477.659 76.488c-165.463 0-302.829 134.244-302.829 296.585 0 165.463 134.244 296.585 302.829 296.585 165.463 0 302.829-134.244 302.829-296.585s-137.366-296.585-302.829-296.585v0zM627.512 407.415h-115.512v143.61c0 18.732-18.732 34.341-37.463 34.341-21.854 0-37.463-15.61-37.463-34.341v-212.293h190.439c21.854 0 37.463 15.61 37.463 34.341 3.122 18.732-15.61 34.341-37.463 34.341v0 0z" />
<glyph unicode="&#xe909;" glyph-name="Document_cuiban3" horiz-adv-x="1755" d="M910.446 136.777c-168.229 0-305.006 136.777-305.006 305.006s136.777 305.006 305.006 305.006c168.229 0 305.006-136.777 305.006-305.006 0-168.046-136.777-305.006-305.006-305.006zM910.446 705.829c-145.554 0-264.046-118.309-264.046-264.046s118.309-264.046 264.046-264.046 264.046 118.491 264.046 264.046-118.491 264.046-264.046 264.046zM617.143 585.874c-21.211 25.966-31.086 58.697-27.611 92.16s19.749 63.451 45.714 84.663c26.149 21.211 58.697 30.903 92.16 27.611 33.463-3.474 63.451-19.566 84.663-45.714l-31.817-25.966c-14.263 17.554-34.56 28.526-57.051 30.72-22.309 2.377-44.617-4.206-62.171-18.651-17.554-14.263-28.526-34.56-30.903-57.051-2.194-22.491 4.206-44.617 18.651-62.171l-31.634-25.6zM1197.349 585.143l-31.634 26.149c29.806 36.023 24.869 89.6-10.971 119.406-17.371 14.446-39.314 21.394-61.989 19.2-22.491-2.011-42.971-12.8-57.417-30.171l-31.451 26.149c21.394 25.966 51.749 41.874 85.211 44.983s66.194-7.131 91.977-28.526c53.211-44.251 60.526-123.794 16.274-177.189zM1052.526 423.131h-172.8v151.223h40.96v-110.080h131.84z" />
<glyph unicode="&#xe90a;" glyph-name="Document_daochu" horiz-adv-x="1107" d="M1071.262 495.262l-283.569 165.415c-15.754 15.754-39.385 15.754-55.138 0-7.877-7.877-11.815-19.692-11.815-31.508 0 0 0-3.938 0-3.938v-153.6h-350.523c-19.692 0-39.385-15.754-39.385-39.385s15.754-39.385 39.385-39.385h385.969c0 0 0 0 0 0s0 0 0 0c23.631 0 39.385 19.692 39.385 47.262v129.969l196.923-114.215-263.877-153.6c-15.754-15.754-15.754-39.385 0-55.138s39.385-15.754 55.138 0l283.569 165.415c11.815 11.815 15.754 27.569 7.877 43.323 11.815 11.815 7.877 31.508-3.938 39.385zM740.431 81.723h-578.954c-3.938 0-7.877 0-11.815 0-19.692 3.938-39.385 19.692-47.262 39.385-3.938 7.877-3.938 15.754-3.938 23.631v578.954c0 7.877 0 15.754 3.938 23.631 7.877 19.692 23.631 35.446 47.262 39.385 3.938 0 7.877 0 11.815 0 0 0 145.723 0 291.446 0h291.446c35.446 0 63.015-27.569 63.015-63.015l78.769 63.015c0 43.323-35.446 78.769-78.769 78.769h-708.923c-23.631 0-43.323-7.877-55.138-23.631-15.754-15.754-23.631-35.446-23.631-55.138v-708.923c0-39.385 27.569-70.892 63.015-78.769 3.938 0 11.815 0 15.754 0h708.923c43.323 0 78.769 35.446 78.769 78.769l-78.769 63.015c-3.938-31.508-31.508-59.077-66.954-59.077z" />
<glyph unicode="&#xe90b;" glyph-name="Document_fawenchax" d="M835.556 928h-643.556c-96 0-174.222-78.222-174.222-174.222v-611.556c0-96 78.222-174.222 174.222-174.222h440.889c17.778 0 35.556 14.222 35.556 35.556 0 17.778-14.222 35.556-35.556 35.556h-440.889c-56.889 0-106.667 46.222-106.667 106.667v608c0 56.889 46.222 103.111 106.667 103.111h643.556c56.889 0 106.667-46.222 106.667-103.111v-412.444c0-17.778 14.222-35.556 35.556-35.556 17.778 0 35.556 14.222 35.556 35.556v412.444c-3.556 96-81.778 174.222-177.778 174.222zM743.111 277.333c35.556 46.222 56.889 106.667 56.889 170.667 0 156.444-128 284.444-288 284.444s-288-128-288-284.444c0-156.444 128-284.444 288-284.444 67.556 0 131.556 24.889 181.333 64l224-224c7.111-7.111 14.222-10.667 24.889-10.667s17.778 3.556 24.889 10.667c14.222 14.222 14.222 35.556 0 49.778l-224 224zM512 231.111c-120.889 0-216.889 96-216.889 213.333s96 213.333 216.889 213.333 216.889-96 216.889-213.333c0-117.333-96-213.333-216.889-213.333z" />
<glyph unicode="&#xe90c;" glyph-name="Document_fawenchaxun" d="M280.889 213.333l302.222 149.333 376.889 376.889c42.667 42.667 42.667 110.222 0 149.333-42.667 42.667-110.222 42.667-149.333 0l-376.889-373.333-152.889-302.222zM860.444 842.667c14.222 14.222 35.556 14.222 49.778 0s14.222-35.556 0-49.778l-323.556-323.556c-3.556-3.556-177.778-131.556-177.778-131.556s124.444 177.778 131.556 181.333l320 323.556zM974.222 583.111c-17.778 0-35.556-14.222-35.556-35.556v-412.444c0-56.889-46.222-103.111-106.667-103.111h-640c-56.889 0-106.667 46.222-106.667 103.111v611.556c0 56.889 46.222 103.111 106.667 103.111h440.889c17.778 0 35.556 14.222 35.556 35.556s-14.222 35.556-35.556 35.556h-440.889c-96 0-174.222-78.222-174.222-174.222v-611.556c0-96 78.222-174.222 174.222-174.222h643.556c96 0 174.222 78.222 174.222 174.222v412.444c0 17.778-14.222 35.556-35.556 35.556z" />
<glyph unicode="&#xe90d;" glyph-name="Document_fawenguanli" d="M618.667 405.333c-46.222 0-85.333-32-99.556-71.111-3.556 0-3.556 0-7.111 0h-284.444c-21.333 0-35.556-14.222-35.556-35.556s14.222-35.556 35.556-35.556h284.444c3.556 0 3.556 0 7.111 0 14.222-42.667 53.333-71.111 99.556-71.111 60.444 0 106.667 46.222 106.667 106.667s-46.222 106.667-106.667 106.667zM618.667 263.111c-21.333 0-35.556 14.222-35.556 35.556s14.222 35.556 35.556 35.556c21.333 0 35.556-14.222 35.556-35.556 0-17.778-14.222-35.556-35.556-35.556zM796.444 938.667h-568.889c-117.333 0-213.333-96-213.333-213.333v-568.889c0-117.333 96-213.333 213.333-213.333h568.889c117.333 0 213.333 96 213.333 213.333v568.889c0 117.333-96 213.333-213.333 213.333zM938.667 156.444c0-78.222-64-142.222-142.222-142.222h-568.889c-78.222 0-142.222 64-142.222 142.222v568.889c0 78.222 64 142.222 142.222 142.222h568.889c78.222 0 142.222-64 142.222-142.222v-568.889zM796.444 583.111h-248.889c-3.556 0-3.556 0-7.111 0-14.222 42.667-53.333 71.111-99.556 71.111s-85.333-28.444-99.556-71.111h-113.778c-21.333 0-35.556-14.222-35.556-35.556s14.222-35.556 35.556-35.556h113.778c14.222-42.667 53.333-71.111 99.556-71.111s85.333 32 99.556 71.111c3.556 0 3.556 0 7.111 0h248.889c21.333 0 35.556 14.222 35.556 35.556s-14.222 35.556-35.556 35.556zM440.889 512c-21.333 0-35.556 14.222-35.556 35.556s14.222 35.556 35.556 35.556 35.556-14.222 35.556-35.556c0-17.778-14.222-35.556-35.556-35.556zM796.444 334.222h-35.556c-21.333 0-35.556-14.222-35.556-35.556s14.222-35.556 35.556-35.556h35.556c21.333 0 35.556 14.222 35.556 35.556s-14.222 35.556-35.556 35.556z" />
<glyph unicode="&#xe90e;" glyph-name="Document_fenfa2" horiz-adv-x="1755" d="M1137.371 139.154h-445.074c-93.074 0-168.96 75.886-168.96 168.96v290.377c0 93.074 75.886 168.96 168.96 168.96h445.074c93.074 0 168.96-75.886 168.96-168.96v-290.377c0-93.074-75.703-168.96-168.96-168.96zM692.297 721.371c-67.657 0-122.697-55.040-122.697-122.697v-290.377c0-67.657 55.040-122.697 122.697-122.697h445.074c67.657 0 122.697 55.040 122.697 122.697v290.194c0 67.657-55.040 122.697-122.697 122.697h-445.074zM665.783 473.6h336.457v-46.263h-336.457v46.263zM665.783 590.446h477.989v-46.263h-477.989v46.263zM665.783 347.977h222.354v-46.263h-222.354v46.263z" />
<glyph unicode="&#xe90f;" glyph-name="Document_fengexian" horiz-adv-x="1107" d="M98.462 369.231h393.846v157.538h-393.846v-157.538zM610.462 526.769v-157.538h393.846v157.538h-393.846z" />
<glyph unicode="&#xe910;" glyph-name="Document_gongwen" d="M520.473 371.745c-65.362 0-118.619-53.258-118.619-121.040s53.258-121.040 118.619-121.040c65.362 0 118.619 53.258 118.619 121.040 2.421 67.783-50.837 121.040-118.619 121.040zM595.518 265.229l-29.050-29.050c-2.421-2.421-2.421-4.842-2.421-7.262l7.262-41.154c0-4.842-4.842-9.683-9.683-7.262l-36.312 19.366c-2.421 0-4.842 0-7.262 0l-36.312-19.366c-4.842-2.421-12.104 2.421-9.683 7.262l7.262 41.154c0 2.421 0 4.842-2.421 7.262l-29.050 29.050c-4.842 4.842-2.421 12.104 4.842 12.104l41.154 4.842c2.421 0 4.842 2.421 4.842 4.842l19.366 38.733c2.421 4.842 9.683 4.842 12.104 0l19.366-38.733c0-2.421 2.421-2.421 4.842-4.842l38.733-4.842c4.842 0 7.262-7.262 2.421-12.104zM895.697 957.579h-774.657c-41.154 0-72.624-33.891-72.624-72.624v-869.069c0-41.154 31.47-72.624 72.624-72.624h774.657c41.154 0 72.624 33.891 72.624 72.624v869.069c0 41.154-31.47 72.624-72.624 72.624zM520.473 107.877c-77.466 0-140.407 62.941-140.407 142.827 0 77.466 62.941 142.827 140.407 142.827s140.407-62.941 140.407-142.827c0-77.466-62.941-142.827-140.407-142.827zM779.499 533.939h-515.631c-14.525 0-29.050 12.104-29.050 29.050 0 14.525 12.104 29.050 29.050 29.050h515.631c14.525 0 29.050-12.104 29.050-29.050-2.421-14.525-14.525-29.050-29.050-29.050zM779.499 703.395h-515.631c-14.525 0-29.050 12.104-29.050 29.050 0 14.525 12.104 29.050 29.050 29.050h515.631c14.525 0 29.050-12.104 29.050-29.050-2.421-14.525-14.525-29.050-29.050-29.050z" />
<glyph unicode="&#xe911;" glyph-name="Document_im" d="M511.999 84.708l-104.589 111.374h-111.987c-91.644 0-166.236 74.592-166.236 166.236v282.741c0 91.644 74.592 166.236 166.236 166.236h433.153c91.644 0 166.236-74.592 166.236-166.236v-282.741c0-91.644-74.592-166.236-166.236-166.236h-112.606l-103.976-111.374zM295.422 762.594c-64.933 0-117.742-52.809-117.742-117.742v-282.741c0-64.933 52.809-117.742 117.742-117.742h133.151l83.425-88.972 83.014 88.972h133.562c64.933 0 117.742 52.809 117.742 117.742v282.949c0 64.933-52.809 117.742-117.742 117.742h-433.153zM296.036 589.167h410.346v-48.697h-410.346v48.697zM384.394 457.040h233.634v-48.697h-233.634v48.697z" />
<glyph unicode="&#xe912;" glyph-name="Document_down" horiz-adv-x="1558" d="M804.571 309.029l-577.829 577.829-124.343-124.343 702.171-702.171 702.171 702.171-124.343 124.343-577.829-577.829z" />
<glyph unicode="&#xe913;" glyph-name="Document_date" horiz-adv-x="1165" d="M1001.53 850.859h-48.15v16.050c0 41.73-35.31 77.041-77.041 77.041v0c-41.73 0-77.041-35.31-77.041-77.041v-12.84h-430.144v12.84c0 41.73-35.31 77.041-77.041 77.041v0c-41.73 0-77.041-35.31-77.041-77.041v-12.84h-48.15c-41.73 0-77.041-35.31-77.041-77.041v-751.147c0-41.73 35.31-77.041 77.041-77.041h841.028c41.73 0 77.041 35.31 77.041 77.041v747.937c-6.42 41.73-41.73 77.041-83.461 77.041v0 0zM828.188 866.909c0 25.68 22.47 48.15 48.15 48.15v0c25.68 0 48.15-22.47 48.15-48.15v-138.031c0-25.68-22.47-48.15-48.15-48.15v0c-25.68 0-48.15 22.47-48.15 48.15v138.031zM240.752 866.909c0 25.68 22.47 48.15 48.15 48.15v0c25.68 0 48.15-22.47 48.15-48.15v-138.031c0-25.68-22.47-48.15-48.15-48.15v0c-25.68 0-48.15 22.47-48.15 48.15v138.031zM1001.53 9.831h-841.028c-9.63 0-16.050 6.42-16.050 16.050v548.915h869.918v-548.915c3.21-6.42-3.21-16.050-12.84-16.050v0 0zM260.013 465.655h144.451v-70.621h-144.451v70.621zM510.395 465.655h141.241v-70.621h-141.241v70.621zM760.777 465.655h141.241v-70.621h-141.241v70.621zM260.013 321.204h144.451v-70.621h-144.451v70.621zM510.395 321.204h141.241v-70.621h-141.241v70.621zM760.777 321.204h141.241v-70.621h-141.241v70.621zM260.013 179.962h144.451v-73.831h-144.451v73.831zM510.395 179.962h141.241v-73.831h-141.241v73.831zM760.777 179.962h141.241v-73.831h-141.241v73.831zM760.777 179.962v0z" />
<glyph unicode="&#xe914;" glyph-name="Document_leibie" d="M342.646 172.308c-35.446 0-66.954-27.569-66.954-66.954 0-35.446 27.569-66.954 66.954-66.954h594.708c35.446 0 66.954 27.569 66.954 66.954 0 35.446-27.569 66.954-66.954 66.954h-594.708zM82.708 172.308c-35.446 0-66.954-27.569-66.954-66.954 0-35.446 27.569-66.954 66.954-66.954 35.446 0 66.954 27.569 66.954 66.954 0 35.446-27.569 66.954-66.954 66.954v0zM342.646 499.2c-35.446 0-66.954-27.569-66.954-66.954 0-35.446 27.569-66.954 66.954-66.954h594.708c35.446 0 66.954 27.569 66.954 66.954 0 35.446-27.569 66.954-66.954 66.954h-594.708zM82.708 499.2c-35.446 0-66.954-27.569-66.954-66.954 0-35.446 27.569-66.954 66.954-66.954 35.446 0 66.954 27.569 66.954 66.954s-27.569 66.954-66.954 66.954v0zM941.292 696.123c35.446 0 66.954 27.569 66.954 66.954 0 35.446-27.569 66.954-66.954 66.954h-594.708c-35.446 0-66.954-27.569-66.954-66.954 0-35.446 27.569-66.954 66.954-66.954h594.708zM19.692 763.077c0-35.446 27.569-66.954 66.954-66.954 35.446 0 66.954 27.569 66.954 66.954 0 35.446-27.569 66.954-66.954 66.954s-66.954-31.508-66.954-66.954z" />
<glyph unicode="&#xe915;" glyph-name="Document_leixingshezhi" horiz-adv-x="1102" d="M120.889 547.556c-60.444 0-106.667-46.222-106.667-106.667s46.222-106.667 106.667-106.667c60.444 0 106.667 46.222 106.667 106.667s-46.222 106.667-106.667 106.667zM120.889 405.333c-21.333 0-35.556 14.222-35.556 35.556s14.222 35.556 35.556 35.556c21.333 0 35.556-14.222 35.556-35.556 0-17.778-14.222-35.556-35.556-35.556zM120.889 263.111c-60.444 0-106.667-46.222-106.667-106.667s46.222-106.667 106.667-106.667c60.444 0 106.667 46.222 106.667 106.667s-46.222 106.667-106.667 106.667zM120.889 120.889c-21.333 0-35.556 14.222-35.556 35.556s14.222 35.556 35.556 35.556c21.333 0 35.556-14.222 35.556-35.556s-14.222-35.556-35.556-35.556zM334.222 689.778h711.111c21.333 0 35.556 14.222 35.556 35.556s-14.222 35.556-35.556 35.556h-711.111c-21.333 0-35.556-14.222-35.556-35.556 0-17.778 17.778-35.556 35.556-35.556zM120.889 832c-60.444 0-106.667-46.222-106.667-106.667s46.222-106.667 106.667-106.667c60.444 0 106.667 46.222 106.667 106.667s-46.222 106.667-106.667 106.667zM120.889 689.778c-21.333 0-35.556 14.222-35.556 35.556s14.222 35.556 35.556 35.556c21.333 0 35.556-14.222 35.556-35.556 0-17.778-14.222-35.556-35.556-35.556zM1045.333 476.444h-711.111c-21.333 0-35.556-14.222-35.556-35.556s14.222-35.556 35.556-35.556h711.111c21.333 0 35.556 14.222 35.556 35.556s-14.222 35.556-35.556 35.556zM1045.333 192h-711.111c-21.333 0-35.556-14.222-35.556-35.556s14.222-35.556 35.556-35.556h711.111c21.333 0 35.556 14.222 35.556 35.556s-14.222 35.556-35.556 35.556z" />
<glyph unicode="&#xe916;" glyph-name="Document_mxizibiao" d="M59.077 841.846v-787.692h905.846v787.692h-905.846zM610.462 526.769v-157.538h-196.923v157.538h196.923zM137.846 526.769h196.923v-157.538h-196.923v157.538zM137.846 132.923v157.538h196.923v-157.538h-196.923zM413.538 132.923v157.538h196.923v-157.538h-196.923zM886.154 132.923h-196.923v157.538h196.923v-157.538zM689.231 369.231v157.538h196.923v-157.538h-196.923z" />
<glyph unicode="&#xe917;" glyph-name="Document_nigao" d="M1008.246 589.785c-19.692 0-39.385-15.754-39.385-39.385v-417.477c0-63.015-51.2-114.215-118.154-114.215h-630.154c-63.015 0-118.154 51.2-118.154 114.215v602.585c0 63.015 51.2 114.215 118.154 114.215h448.985c19.692 0 39.385 15.754 39.385 39.385 0 19.692-15.754 39.385-39.385 39.385h-448.985c-106.338 0-192.985-86.646-192.985-192.985v-598.646c0-106.338 86.646-192.985 192.985-192.985h634.092c106.338 0 192.985 86.646 192.985 192.985v413.538c0 23.631-15.754 39.385-39.385 39.385zM594.708 369.231l-204.8 118.154c-19.692 11.815-43.323 3.938-55.138-15.754s-3.938-43.323 15.754-55.138l204.8-118.154c7.877-3.938 11.815-3.938 19.692-3.938 3.938-7.877 7.877-11.815 15.754-15.754 19.692-11.815 43.323-3.938 55.138 15.754l354.462 535.631c11.815 19.692 3.938 43.323-15.754 55.138s-43.323 3.938-55.138-15.754l-334.769-500.185c3.938-3.938 3.938 0 0 0z" />
<glyph unicode="&#xe918;" glyph-name="Document_reject" horiz-adv-x="1755" d="M978.651 163.474h-294.034v40.594h294.034c117.211 0 212.48 95.269 212.48 212.48s-95.269 212.48-212.48 212.48h-294.034v40.594h294.034c139.52 0 253.074-113.554 253.074-253.074s-113.737-253.074-253.074-253.074zM800.183 497.554l-158.354 153.234 160.183 139.703 26.697-30.537-126.903-110.811 126.537-122.331z" />
<glyph unicode="&#xe919;" glyph-name="Document_serch" d="M968.862 54.154l-153.6 153.6c55.138 74.831 90.585 165.415 90.585 267.815 0 244.185-192.985 441.108-433.231 441.108s-433.231-196.923-433.231-441.108 192.985-441.108 433.231-441.108c106.338 0 204.8 39.385 279.631 106.338l149.662-153.6c19.692-19.692 47.262-19.692 66.954 0s19.692 51.2 0 66.954zM472.615 132.923c-189.046 0-342.646 153.6-342.646 346.585s153.6 346.585 342.646 346.585c189.046 0 342.646-153.6 342.646-346.585s-153.6-346.585-342.646-346.585z" />
<glyph unicode="&#xe91a;" glyph-name="Document_shanc" d="M563.2 278.646v212.677c0 27.569-23.631 55.138-51.2 55.138s-51.2-23.631-51.2-55.138v-212.677c0-27.569 23.631-55.138 51.2-55.138s51.2 27.569 51.2 55.138v0zM771.938 704h-145.723c0 0 0 0 0 0 0 59.077-47.262 106.338-106.338 106.338s-106.338-47.262-106.338-106.338c0 0 0 0 0 0h-169.354c-27.569 0-51.2-23.631-51.2-55.138 0-27.569 23.631-55.138 51.2-55.138h523.815c27.569 0 51.2 23.631 51.2 55.138 7.877 31.508-15.754 55.138-47.262 55.138v0zM720.738 546.462c-27.569 0-51.2-23.631-51.2-55.138v-267.815c0-27.569-23.631-55.138-51.2-55.138h-208.738c-27.569 0-51.2 23.631-51.2 55.138v267.815c0 27.569-23.631 55.138-51.2 55.138s-51.2-23.631-51.2-55.138v-319.015c0-59.077 47.262-106.338 106.338-106.338h315.077c59.077 0 106.338 47.262 106.338 106.338v319.015c-11.815 31.508-35.446 55.138-63.015 55.138v0z" />
<glyph unicode="&#xe91b;" glyph-name="Document_taohong" d="M551.111 270.222l-35.556 67.556-35.556-67.556-71.111-14.222 49.778-56.889-10.667-74.667 67.556 32 67.556-32-10.667 74.667 49.778 56.889-71.111 14.222zM800 942.222h-568.889c-117.333 0-213.333-96-213.333-213.333v-568.889c0-117.333 96-213.333 213.333-213.333h568.889c117.333 0 213.333 96 213.333 213.333v568.889c0 117.333-96 213.333-213.333 213.333zM942.222 160c0-78.222-64-142.222-142.222-142.222h-568.889c-78.222 0-142.222 64-142.222 142.222v568.889c0 78.222 64 142.222 142.222 142.222h568.889c78.222 0 142.222-64 142.222-142.222v-568.889zM764.444 693.333h-497.778c-21.333 0-35.556-14.222-35.556-35.556s14.222-35.556 35.556-35.556h497.778c21.333 0 35.556 14.222 35.556 35.556 0 17.778-17.778 35.556-35.556 35.556zM764.444 515.556h-497.778c-21.333 0-35.556-14.222-35.556-35.556s14.222-35.556 35.556-35.556h497.778c21.333 0 35.556 14.222 35.556 35.556 0 17.778-17.778 35.556-35.556 35.556z" />
<glyph unicode="&#xe91c;" glyph-name="Document_tianjia" horiz-adv-x="1028" d="M857.212 513.939h-279.273v279.273c0 23.273-19.394 42.667-42.667 42.667h-42.667c-23.273 0-42.667-19.394-42.667-42.667v-279.273h-279.273c-23.273 0-42.667-19.394-42.667-42.667v-42.667c0-23.273 19.394-42.667 42.667-42.667h279.273v-279.273c0-23.273 19.394-42.667 42.667-42.667h42.667c23.273 0 42.667 19.394 42.667 42.667v279.273h279.273c23.273 0 42.667 19.394 42.667 42.667v42.667c0 23.273-19.394 42.667-42.667 42.667z" />
<glyph unicode="&#xe91d;" glyph-name="Document_tishi" d="M1024 448c0-283.569-228.431-512-512-512s-512 228.431-512 512c0 283.569 228.431 512 512 512s512-228.431 512-512v0zM929.477 448c0 228.431-185.108 417.477-417.477 417.477-228.431 0-417.477-185.108-417.477-417.477 0-228.431 185.108-417.477 417.477-417.477s417.477 189.046 417.477 417.477v0zM578.954 640.985v-192.985c0-35.446-27.569-63.015-63.015-63.015s-63.015 27.569-63.015 63.015v192.985c0 35.446 27.569 63.015 63.015 63.015 31.508 0 63.015-27.569 63.015-63.015v0zM578.954 255.015c0-35.446-27.569-63.015-63.015-63.015s-63.015 27.569-63.015 63.015c0 35.446 27.569 63.015 63.015 63.015 31.508 0 63.015-27.569 63.015-63.015v0z" />
<glyph unicode="&#xe91e;" glyph-name="Document_wendan-28" d="M905.846 920.615h-787.692c-43.323 0-78.769-35.446-78.769-78.769v-787.692c0-43.323 35.446-78.769 78.769-78.769h787.692c43.323 0 78.769 35.446 78.769 78.769v787.692c0 43.323-35.446 78.769-78.769 78.769zM827.077 172.308c0-23.631-15.754-39.385-39.385-39.385h-551.385c-23.631 0-39.385 15.754-39.385 39.385v551.385c0 23.631 15.754 39.385 39.385 39.385h551.385c23.631 0 39.385-15.754 39.385-39.385v-551.385zM649.846 644.923h-275.692c-31.508 0-59.077-27.569-59.077-59.077s27.569-59.077 59.077-59.077h275.692c31.508 0 59.077 27.569 59.077 59.077s-27.569 59.077-59.077 59.077zM571.077 408.615h-196.923c-31.508 0-59.077-27.569-59.077-59.077s27.569-59.077 59.077-59.077h196.923c31.508 0 59.077 27.569 59.077 59.077s-27.569 59.077-59.077 59.077z" />
<glyph unicode="&#xe91f;" glyph-name="Document_wenhao" d="M689.778 622.222c0 21.333-14.222 35.556-35.556 35.556h-355.556c-21.333 0-35.556-14.222-35.556-35.556s14.222-35.556 35.556-35.556h142.222v-391.111c0-21.333 14.222-35.556 35.556-35.556s35.556 14.222 35.556 35.556v391.111h142.222c21.333 0 35.556 14.222 35.556 35.556zM760.889 408.889h-142.222c-21.333 0-35.556-14.222-35.556-35.556s14.222-35.556 35.556-35.556h35.556v-142.222c0-21.333 14.222-35.556 35.556-35.556s35.556 14.222 35.556 35.556v142.222h35.556c21.333 0 35.556 14.222 35.556 35.556 0 17.778-14.222 35.556-35.556 35.556zM796.444 942.222h-568.889c-117.333 0-213.333-96-213.333-213.333v-568.889c0-117.333 96-213.333 213.333-213.333h568.889c117.333 0 213.333 96 213.333 213.333v568.889c0 117.333-96 213.333-213.333 213.333zM938.667 160c0-78.222-64-142.222-142.222-142.222h-568.889c-78.222 0-142.222 64-142.222 142.222v568.889c0 78.222 64 142.222 142.222 142.222h568.889c78.222 0 142.222-64 142.222-142.222v-568.889z" />
<glyph unicode="&#xe920;" glyph-name="Document_wodefawen" d="M728.889 376.889h-497.778c-21.333 0-35.556-14.222-35.556-35.556s14.222-35.556 35.556-35.556h497.778c21.333 0 35.556 14.222 35.556 35.556 0 17.778-14.222 35.556-35.556 35.556zM800 945.778h-568.889c-117.333 0-213.333-96-213.333-213.333v-568.889c0-117.333 96-213.333 213.333-213.333h568.889c117.333 0 213.333 96 213.333 213.333v568.889c0 117.333-96 213.333-213.333 213.333zM942.222 163.556c0-78.222-64-142.222-142.222-142.222h-568.889c-78.222 0-142.222 64-142.222 142.222v568.889c0 78.222 64 142.222 142.222 142.222h568.889c78.222 0 142.222-64 142.222-142.222v-568.889zM231.111 519.111h284.444c21.333 0 35.556 14.222 35.556 35.556s-14.222 35.556-35.556 35.556h-284.444c-21.333 0-35.556-14.222-35.556-35.556s17.778-35.556 35.556-35.556z" />
<glyph unicode="&#xe921;" glyph-name="Document_xiala" d="M41.195 665.747h941.609l-470.805-470.805-470.805 470.805z" />
<glyph unicode="&#xe922;" glyph-name="Document_xiugai" d="M905.846 467.692c-43.323 0-78.769-35.446-78.769-78.769v-236.308h-630.154v630.154h236.308c43.323 0 78.769 35.446 78.769 78.769s-35.446 78.769-78.769 78.769h-315.077c-43.323 0-78.769-35.446-78.769-78.769v-787.692c0-43.323 35.446-78.769 78.769-78.769h787.692c43.323 0 78.769 35.446 78.769 78.769v315.077c0 43.323-35.446 78.769-78.769 78.769v0zM378.092 337.723c31.508-31.508 82.708-31.508 118.154 0l464.738 464.738c31.508 31.508 31.508 82.708 0 118.154-31.508 31.508-82.708 31.508-118.154 0l-464.738-464.738c-31.508-35.446-31.508-86.646 0-118.154v0z" />
<glyph unicode="&#xe923;" glyph-name="Document_ydong" d="M945.231 420.431l-185.108 165.415v-118.154h-189.046v200.862h102.4l-169.354 185.108-169.354-185.108h122.092v-200.862h-192.985v118.154l-185.108-165.415 185.108-165.415v102.4h192.985v-145.723h-122.092l169.354-185.108 169.354 185.108h-102.4v145.723h189.046v-102.4z" />
<glyph unicode="&#xe924;" glyph-name="Document_yinzhang" d="M867.556 508.444h-238.222c-3.556 21.333 3.556 42.667 17.778 60.444l81.778 81.778c96 96 24.889 252.444-113.778 252.444h-209.778c-138.667 0-206.222-156.444-113.778-252.444l81.778-81.778c17.778-17.778 21.333-39.111 17.778-60.444h-238.222c-78.222 0-145.778-64-145.778-138.667s64-138.667 145.778-138.667h707.556c78.222 0 145.778 64 145.778 138.667s-60.444 138.667-138.667 138.667zM796.444 298.667h-565.333c-78.222 0-145.778-7.111-145.778 67.556s64 67.556 145.778 67.556h238.222c3.556 21.333-3.556 113.778-17.778 131.556l-46.222 81.778c-135.111 99.556-88.889 184.889 7.111 181.333h209.778c92.444 3.556 128-85.333 7.111-181.333l-46.222-81.778c-17.778-17.778-21.333-110.222-17.778-131.556h238.222c78.222 0 145.778 7.111 145.778-67.556s-74.667-67.556-152.889-67.556zM871.111 120.889h-711.111c-21.333 0-35.556-14.222-35.556-35.556s14.222-35.556 35.556-35.556h711.111c21.333 0 35.556 14.222 35.556 35.556 0 17.778-17.778 35.556-35.556 35.556z" />
<glyph unicode="&#xe925;" glyph-name="Document_you" horiz-adv-x="886" d="M626.627 450.547l-402.468-402.468 86.607-86.607 489.075 489.075-489.075 489.075-86.607-86.607 402.468-402.468z" />
<glyph unicode="&#xe926;" glyph-name="Document_yulan" horiz-adv-x="1430" d="M701.046 633.108c-110.277 0-196.923-86.646-196.923-196.923s86.646-196.923 196.923-196.923c110.277 0 196.923 86.646 196.923 196.923 0 106.338-86.646 196.923-196.923 196.923zM701.046 357.415c-43.323 0-78.769 35.446-78.769 78.769s35.446 78.769 78.769 78.769c43.323 0 78.769-35.446 78.769-78.769s-35.446-78.769-78.769-78.769zM716.8 916.677c-382.031 0-689.231-468.677-689.231-468.677s307.2-468.677 689.231-468.677c389.908-11.815 689.231 468.677 689.231 468.677s-307.2 468.677-689.231 468.677zM720.738 121.108c-271.754 0-492.308 315.077-492.308 315.077s220.554 315.077 492.308 315.077c271.754 0 492.308-315.077 492.308-315.077s-212.677-322.954-492.308-315.077z" />
<glyph unicode="&#xe927;" glyph-name="Document_wendan-13" horiz-adv-x="1021" d="M920.344 614.479v0l-314.11 314.11h-314.11c-103.656 0-188.466-84.81-188.466-188.466v-565.399c0-103.656 84.81-188.466 188.466-188.466h439.755c103.656 0 188.466 84.81 188.466 188.466v439.755zM606.233 840.638l226.16-226.16h-100.515c-69.104 0-125.644 56.54-125.644 125.644v100.515zM857.521 174.724c0-69.104-56.54-125.644-125.644-125.644h-439.755c-69.104 0-125.644 56.54-125.644 125.644v565.399c0 69.104 56.54 125.644 125.644 125.644h251.288v-125.644c0-103.656 84.81-188.466 188.466-188.466h125.644v-376.933zM270.135 397.742h251.288c18.847 0 31.411 12.564 31.411 31.411s-12.564 31.411-31.411 31.411h-251.288c-18.847 0-31.411-12.564-31.411-31.411s12.564-31.411 31.411-31.411zM647.067 303.509h-376.933c-18.847 0-31.411-12.564-31.411-31.411s12.564-31.411 31.411-31.411h376.933c18.847 0 31.411 12.564 31.411 31.411 0 15.706-15.706 31.411-31.411 31.411z" />
<glyph unicode="&#xe928;" glyph-name="Document-icon-item" horiz-adv-x="957" d="M750.653 896.92h-546.694c-69.388 0-126.16-56.772-126.16-126.16v-630.801c0-69.388 56.772-126.16 126.16-126.16h546.694c69.388 0 126.16 56.772 126.16 126.16v630.801c0 69.388-56.772 126.16-126.16 126.16zM834.76 139.959c0-46.259-37.848-84.107-84.107-84.107h-546.694c-46.259 0-84.107 37.848-84.107 84.107v630.801c0 46.259 37.848 84.107 84.107 84.107h546.694c46.259 0 84.107-37.848 84.107-84.107v-630.801zM477.306 449.051c-86.209 0-157.7-71.491-157.7-157.7s71.491-157.7 157.7-157.7 157.7 71.491 157.7 157.7-69.388 157.7-157.7 157.7zM477.306 154.678c-75.696 0-136.674 60.977-136.674 136.674s60.977 136.674 136.674 136.674 136.674-60.977 136.674-136.674-60.977-136.674-136.674-136.674zM502.538 318.686l-25.232 46.259-23.129-46.259-50.464-10.513 35.745-37.848-6.308-52.567 44.156 21.027 46.259-21.027-6.308 52.567 33.643 37.848zM687.573 583.622h-420.534c-12.616 0-21.027-8.411-21.027-21.027s8.411-21.027 21.027-21.027h420.534c12.616 0 21.027 8.411 21.027 21.027s-8.411 21.027-21.027 21.027zM687.573 730.809h-420.534c-12.616 0-21.027-8.411-21.027-21.027s8.411-21.027 21.027-21.027h420.534c12.616 0 21.027 8.411 21.027 21.027s-8.411 21.027-21.027 21.027z" />
<glyph unicode="&#xe929;" glyph-name="Document_icon_send" d="M787.456 924.891v-311.808c0-27.063-19.529-13.824-19.529-13.824l-56.686 51.566c0 0-28.965 23.333-28.965 51.639v152.503h-393.728v-110.885c0-30.208-15.726-46.592-46.007-46.592h-137.362v-656.384h472.503c18.871 0 26.478-5.705 26.478-22.674v-59.831c0-17.042-7.534-22.674-26.478-22.674h-498.907c-42.203-0.073-78.775 18.798-78.775 69.851v705.536c0 24.576 18.286 44.105 28.965 56.101 40.96 45.349 121.563 137.362 169.472 175.104 11.995 9.435 28.965 17.627 57.929 17.627h492.032c26.478-0.585 39.058-15.141 39.058-35.255zM462.994 367.397c-21.431 0-28.379-15.141-28.379-30.208v-126.61c0-17.042 6.949-26.478 28.379-26.478h207.872v-219.867c0-32.11 39.058 6.949 39.058 6.949l301.714 274.066c15.726 12.581 17.042 34.011 0 49.152l-306.688 294.693c0 0-33.353 31.525-33.353-3.803v-217.966h-208.603z" />
<glyph unicode="&#xe92a;" glyph-name="Document_bianji" horiz-adv-x="1050" d="M529.446 815.881c-201.766 0-364.089-162.323-364.089-364.089s162.323-364.089 364.089-364.089c201.766 0 364.089 162.323 364.089 364.089s-163.84 364.089-364.089 364.089v0zM716.041 568.604c-9.102-10.619-40.96-42.477-40.96-42.477v0l-210.868-213.902-125.914-53.096 50.062 133.499 212.385 209.351 36.409 36.409c0 0 16.687 16.687 39.443 0 21.239-16.687 40.96-37.926 40.96-37.926s9.102-21.239-1.517-31.858v0z" />
<glyph unicode="&#xe92b;" glyph-name="Document_bofan" horiz-adv-x="832" d="M159.773 869.22c10.894 10.894 32.681 10.894 47.206 0l526.525-410.326c10.894-10.894 10.894-25.418 0-36.312l-526.525-410.326c-10.894-10.894-32.681-10.894-47.206 0z" />
<glyph unicode="&#xe92c;" glyph-name="Document_qianzhang" horiz-adv-x="1192" d="M286.953 180.711h633.627v-68.461h-633.627v68.461zM873.969 365.701h-155.858c-14.566 17.479-24.762 34.959-24.762 55.351-7.283 81.57 84.484 123.812 84.484 222.862 0 85.94-67.004 154.401-177.707 154.401-109.246 0-177.707-68.461-177.707-154.401 0-101.963 91.767-139.835 84.484-222.862 0-20.393-10.196-37.872-24.762-55.351h-155.858c-24.762 0-46.612-20.393-46.612-45.155v-91.767h640.91v91.767c2.913 24.762-17.479 45.155-46.612 45.155v0z" />
<glyph unicode="&#xe92d;" glyph-name="Document_tingzhi" horiz-adv-x="799" d="M229.313 928.371h-102.795c-23.722 0-39.537-15.815-39.537-39.537v-869.807c0-23.722 15.815-39.537 39.537-39.537h102.795c23.722 0 39.537 15.815 39.537 39.537v869.807c0 23.722-19.768 39.537-39.537 39.537zM680.031 928.371h-102.795c-23.722 0-39.537-15.815-39.537-39.537v-869.807c0-23.722 15.815-39.537 39.537-39.537h102.795c23.722 0 39.537 15.815 39.537 39.537v869.807c0 23.722-19.768 39.537-39.537 39.537z" />
<glyph unicode="&#xe92e;" glyph-name="icon-delete" d="M512 960c-282.782 0-512-229.218-512-512s229.218-512 512-512 512 229.218 512 512-229.218 512-512 512zM697.62 315.589c14.69-14.69 14.69-38.518 0-53.209s-38.518-14.69-53.209 0l-133.002 133.002-133.002-133.002c-14.69-14.69-38.518-14.69-53.209 0s-14.69 38.518 0 53.209l133.002 133.002-133.002 133.002c-14.69 14.69-14.69 38.518 0 53.209s38.518 14.69 53.209 0l133.002-133.002 133.002 133.002c14.69 14.69 38.518 14.69 53.209 0s14.69-38.518 0-53.209l-133.002-133.002 133.002-133.002z" />
<glyph unicode="&#xe92f;" glyph-name="share_dark" d="M867.556 330.667c-39.111 0-71.111-32-71.111-71.111v-106.667h-568.889v568.889h106.667c39.111 0 71.111 32 71.111 71.111s-32 71.111-71.111 71.111h-177.778c-39.111 0-71.111-32-71.111-71.111v-711.111c0-39.111 32-71.111 71.111-71.111h711.111c39.111 0 71.111 32 71.111 71.111v177.778c0 39.111-32 71.111-71.111 71.111zM597.333 721.778h92.444l-298.667-298.667c-28.444-28.444-28.444-74.667 0-106.667 28.444-28.444 74.667-28.444 106.667 0l302.222 302.222v-99.556c0-46.222 32-81.778 71.111-81.778s71.111 39.111 71.111 81.778v248.889c0 3.556 0 7.111 0 10.667s0 7.111 0 10.667c0 14.222-3.556 28.444-14.222 39.111 0 0 0 0 0 0s0 3.556-3.556 3.556-3.556 7.111-7.111 7.111c-17.778 17.778-39.111 24.889-60.444 21.333 0 0 0 0-3.556 0h-256c-46.222 0-85.333-32-85.333-71.111 0-35.556 39.111-67.556 85.333-67.556z" />
<glyph unicode="&#xe930;" glyph-name="Document_2_cha6" horiz-adv-x="1021" d="M920.344 614.479v0l-314.11 314.11h-314.11c-103.656 0-188.466-84.81-188.466-188.466v-565.399c0-103.656 84.81-188.466 188.466-188.466h439.755c103.656 0 188.466 84.81 188.466 188.466v439.755zM606.233 840.638l226.16-226.16h-100.515c-69.104 0-125.644 56.54-125.644 125.644v100.515zM857.521 174.724c0-69.104-56.54-125.644-125.644-125.644h-439.755c-69.104 0-125.644 56.54-125.644 125.644v565.399c0 69.104 56.54 125.644 125.644 125.644h251.288v-125.644c0-103.656 84.81-188.466 188.466-188.466h125.644v-376.933zM270.135 397.742h251.288c18.847 0 31.411 12.564 31.411 31.411s-12.564 31.411-31.411 31.411h-251.288c-18.847 0-31.411-12.564-31.411-31.411s12.564-31.411 31.411-31.411zM647.067 303.509h-376.933c-18.847 0-31.411-12.564-31.411-31.411s12.564-31.411 31.411-31.411h376.933c18.847 0 31.411 12.564 31.411 31.411 0 15.706-15.706 31.411-31.411 31.411z" />
<glyph unicode="&#xe931;" glyph-name="Document_2_daidengji" d="M476.444 448c0 21.333-14.222 35.556-35.556 35.556h-142.222c-21.333 0-35.556-14.222-35.556-35.556s14.222-35.556 35.556-35.556h142.222c21.333 0 35.556 14.222 35.556 35.556zM298.667 554.667h248.889c21.333 0 35.556 14.222 35.556 35.556s-14.222 35.556-35.556 35.556h-248.889c-21.333 0-35.556-14.222-35.556-35.556s17.778-35.556 35.556-35.556zM796.444 945.778h-568.889c-117.333 0-213.333-96-213.333-213.333v-568.889c0-117.333 96-213.333 213.333-213.333h568.889c117.333 0 213.333 96 213.333 213.333v568.889c0 117.333-96 213.333-213.333 213.333zM938.667 163.556c0-78.222-64-142.222-142.222-142.222h-568.889c-78.222 0-142.222 64-142.222 142.222v568.889c0 78.222 64 142.222 142.222 142.222h568.889c78.222 0 142.222-64 142.222-142.222v-568.889zM796.444 718.222c-17.778 10.667-39.111 3.556-49.778-14.222l-284.444-519.111c-10.667-17.778-3.556-39.111 14.222-49.778s39.111-3.556 49.778 14.222l284.444 519.111c10.667 21.333 3.556 42.667-14.222 49.778z" />
<glyph unicode="&#xe932;" glyph-name="Document_2_dengji" d="M871.111 508.444c-39.111 0-71.111-32-71.111-71.111v-284.444h-568.889v568.889h284.444c39.111 0 71.111 32 71.111 71.111s-32 71.111-71.111 71.111h-355.556c-39.111 0-71.111-32-71.111-71.111v-711.111c0-39.111 32-71.111 71.111-71.111h711.111c39.111 0 71.111 32 71.111 71.111v355.556c0 39.111-32 71.111-71.111 71.111zM337.778 544c0-39.111 32-71.111 71.111-71.111h213.333c39.111 0 71.111 32 71.111 71.111s-32 71.111-71.111 71.111h-213.333c-39.111 0-71.111-32-71.111-71.111zM408.889 401.778c-39.111 0-71.111-32-71.111-71.111s32-71.111 71.111-71.111h71.111c39.111 0 71.111 32 71.111 71.111s-32 71.111-71.111 71.111h-71.111z" />
<glyph unicode="&#xe933;" glyph-name="search_border" d="M835.556 928h-643.556c-96 0-174.222-78.222-174.222-174.222v-611.556c0-96 78.222-174.222 174.222-174.222h440.889c17.778 0 35.556 14.222 35.556 35.556 0 17.778-14.222 35.556-35.556 35.556h-440.889c-56.889 0-106.667 46.222-106.667 106.667v608c0 56.889 46.222 103.111 106.667 103.111h643.556c56.889 0 106.667-46.222 106.667-103.111v-412.444c0-17.778 14.222-35.556 35.556-35.556 17.778 0 35.556 14.222 35.556 35.556v412.444c-3.556 96-81.778 174.222-177.778 174.222zM743.111 277.333c35.556 46.222 56.889 106.667 56.889 170.667 0 156.444-128 284.444-288 284.444s-288-128-288-284.444c0-156.444 128-284.444 288-284.444 67.556 0 131.556 24.889 181.333 64l224-224c7.111-7.111 14.222-10.667 24.889-10.667s17.778 3.556 24.889 10.667c14.222 14.222 14.222 35.556 0 49.778l-224 224zM512 231.111c-120.889 0-216.889 96-216.889 213.333s96 213.333 216.889 213.333 216.889-96 216.889-213.333c0-117.333-96-213.333-216.889-213.333z" />
<glyph unicode="&#xe934;" glyph-name="editor" d="M280.889 213.333l302.222 149.333 376.889 376.889c42.667 42.667 42.667 110.222 0 149.333-42.667 42.667-110.222 42.667-149.333 0l-376.889-373.333-152.889-302.222zM860.444 842.667c14.222 14.222 35.556 14.222 49.778 0s14.222-35.556 0-49.778l-323.556-323.556c-3.556-3.556-177.778-131.556-177.778-131.556s124.444 177.778 131.556 181.333l320 323.556zM974.222 583.111c-17.778 0-35.556-14.222-35.556-35.556v-412.444c0-56.889-46.222-103.111-106.667-103.111h-640c-56.889 0-106.667 46.222-106.667 103.111v611.556c0 56.889 46.222 103.111 106.667 103.111h440.889c17.778 0 35.556 14.222 35.556 35.556s-14.222 35.556-35.556 35.556h-440.889c-96 0-174.222-78.222-174.222-174.222v-611.556c0-96 78.222-174.222 174.222-174.222h643.556c96 0 174.222 78.222 174.222 174.222v412.444c0 17.778-14.222 35.556-35.556 35.556z" />
<glyph unicode="&#xe935;" glyph-name="Document_2_fawenguanli" d="M618.667 405.333c-46.222 0-85.333-32-99.556-71.111-3.556 0-3.556 0-7.111 0h-284.444c-21.333 0-35.556-14.222-35.556-35.556s14.222-35.556 35.556-35.556h284.444c3.556 0 3.556 0 7.111 0 14.222-42.667 53.333-71.111 99.556-71.111 60.444 0 106.667 46.222 106.667 106.667s-46.222 106.667-106.667 106.667zM618.667 263.111c-21.333 0-35.556 14.222-35.556 35.556s14.222 35.556 35.556 35.556c21.333 0 35.556-14.222 35.556-35.556 0-17.778-14.222-35.556-35.556-35.556zM796.444 938.667h-568.889c-117.333 0-213.333-96-213.333-213.333v-568.889c0-117.333 96-213.333 213.333-213.333h568.889c117.333 0 213.333 96 213.333 213.333v568.889c0 117.333-96 213.333-213.333 213.333zM938.667 156.444c0-78.222-64-142.222-142.222-142.222h-568.889c-78.222 0-142.222 64-142.222 142.222v568.889c0 78.222 64 142.222 142.222 142.222h568.889c78.222 0 142.222-64 142.222-142.222v-568.889zM796.444 583.111h-248.889c-3.556 0-3.556 0-7.111 0-14.222 42.667-53.333 71.111-99.556 71.111s-85.333-28.444-99.556-71.111h-113.778c-21.333 0-35.556-14.222-35.556-35.556s14.222-35.556 35.556-35.556h113.778c14.222-42.667 53.333-71.111 99.556-71.111s85.333 32 99.556 71.111c3.556 0 3.556 0 7.111 0h248.889c21.333 0 35.556 14.222 35.556 35.556s-14.222 35.556-35.556 35.556zM440.889 512c-21.333 0-35.556 14.222-35.556 35.556s14.222 35.556 35.556 35.556 35.556-14.222 35.556-35.556c0-17.778-14.222-35.556-35.556-35.556zM796.444 334.222h-35.556c-21.333 0-35.556-14.222-35.556-35.556s14.222-35.556 35.556-35.556h35.556c21.333 0 35.556 14.222 35.556 35.556s-14.222 35.556-35.556 35.556z" />
<glyph unicode="&#xe936;" glyph-name="Document_2_guidang" d="M380.444 700.444v-14.222c0-85.333 67.556-152.889 152.889-152.889h337.778v-401.778h-711.111v568.889h220.444zM426.667 842.667h-309.333c-53.333 0-99.556-42.667-99.556-96v-640c0-64 56.889-117.333 124.444-117.333h231.111c0 0 3.556 0 3.556 0s3.556 0 3.556 0h270.222c0 0 0 0 3.556 0 0 0 0 0 3.556 0h234.667c67.556 0 124.444 53.333 124.444 117.333v451.556c0 64-53.333 117.333-120.889 117.333h-359.111c-3.556 0-10.667 3.556-10.667 10.667 0 0 0 71.111 0 71.111-7.111 49.778-49.778 85.333-99.556 85.333v0z" />
<glyph unicode="&#xe937;" glyph-name="row" horiz-adv-x="1102" d="M120.889 547.556c-60.444 0-106.667-46.222-106.667-106.667s46.222-106.667 106.667-106.667c60.444 0 106.667 46.222 106.667 106.667s-46.222 106.667-106.667 106.667zM120.889 405.333c-21.333 0-35.556 14.222-35.556 35.556s14.222 35.556 35.556 35.556c21.333 0 35.556-14.222 35.556-35.556 0-17.778-14.222-35.556-35.556-35.556zM120.889 263.111c-60.444 0-106.667-46.222-106.667-106.667s46.222-106.667 106.667-106.667c60.444 0 106.667 46.222 106.667 106.667s-46.222 106.667-106.667 106.667zM120.889 120.889c-21.333 0-35.556 14.222-35.556 35.556s14.222 35.556 35.556 35.556c21.333 0 35.556-14.222 35.556-35.556s-14.222-35.556-35.556-35.556zM334.222 689.778h711.111c21.333 0 35.556 14.222 35.556 35.556s-14.222 35.556-35.556 35.556h-711.111c-21.333 0-35.556-14.222-35.556-35.556 0-17.778 17.778-35.556 35.556-35.556zM120.889 832c-60.444 0-106.667-46.222-106.667-106.667s46.222-106.667 106.667-106.667c60.444 0 106.667 46.222 106.667 106.667s-46.222 106.667-106.667 106.667zM120.889 689.778c-21.333 0-35.556 14.222-35.556 35.556s14.222 35.556 35.556 35.556c21.333 0 35.556-14.222 35.556-35.556 0-17.778-14.222-35.556-35.556-35.556zM1045.333 476.444h-711.111c-21.333 0-35.556-14.222-35.556-35.556s14.222-35.556 35.556-35.556h711.111c21.333 0 35.556 14.222 35.556 35.556s-14.222 35.556-35.556 35.556zM1045.333 192h-711.111c-21.333 0-35.556-14.222-35.556-35.556s14.222-35.556 35.556-35.556h711.111c21.333 0 35.556 14.222 35.556 35.556s-14.222 35.556-35.556 35.556z" />
<glyph unicode="&#xe938;" glyph-name="Document_2_qianshou" d="M512 945.778c-273.778 0-497.778-224-497.778-497.778s224-497.778 497.778-497.778 497.778 224 497.778 497.778-224 497.778-497.778 497.778zM512 92.444c-195.556 0-355.556 160-355.556 355.556s160 355.556 355.556 355.556c195.556 0 355.556-160 355.556-355.556s-160-355.556-355.556-355.556zM696.889 654.222c-35.556 21.333-78.222 7.111-96-24.889l-142.222-245.333-92.444 53.333c-35.556 21.333-78.222 7.111-96-24.889s-7.111-78.222 24.889-96l124.444-71.111c7.111-3.556 10.667-3.556 17.778-7.111 3.556-3.556 7.111-7.111 14.222-10.667 35.556-21.333 78.222-7.111 96 24.889l177.778 309.333c17.778 28.444 3.556 71.111-28.444 92.444z" />
<glyph unicode="&#xe939;" glyph-name="Document_2_qianshouwenjian" d="M353.745 485.236h-124.121c-18.618 0-31.030-12.412-31.030-31.030s12.412-31.030 31.030-31.030h124.121c18.618 0 31.030 12.412 31.030 31.030 0 15.515-15.515 31.030-31.030 31.030zM822.303 320.776l-108.606-108.606-43.442 43.442c-12.412 12.412-31.030 12.412-43.442 0s-12.412-31.030 0-43.442l65.164-65.164c12.412-12.412 31.030-12.412 43.442 0l130.327 130.327c12.412 12.412 12.412 31.030 0 43.442s-31.030 12.412-43.442 0zM878.158 475.927v263.758c0 83.782-68.267 152.048-152.048 152.048h-561.648c-83.782 0-152.048-68.267-152.048-152.048v-533.721c0-83.782 68.267-152.048 152.048-152.048h384.776c6.206 0 9.309 3.103 15.515 3.103 46.545-43.442 108.606-68.267 176.873-68.267 145.842 0 263.758 117.915 263.758 263.758 0 96.194-52.752 176.873-127.224 223.418zM161.358 115.976c-49.648 0-93.091 40.339-93.091 89.988v533.721c0 49.648 40.339 89.988 93.091 89.988h561.648c49.648 0 93.091-40.339 93.091-89.988v-235.83c-24.824 6.206-49.648 12.412-77.576 12.412-145.842 0-263.758-117.915-263.758-263.758 0-49.648 15.515-96.194 40.339-136.533h-353.745zM741.624 50.812c-111.709 0-201.697 89.988-201.697 201.697s89.988 201.697 201.697 201.697 201.697-89.988 201.697-201.697-89.988-201.697-201.697-201.697zM229.624 609.358h248.242c18.618 0 31.030 12.412 31.030 31.030s-12.412 31.030-31.030 31.030h-248.242c-18.618 0-31.030-12.412-31.030-31.030s12.412-31.030 31.030-31.030z" />
<glyph unicode="&#xe93a;" glyph-name="Document_2_shouhui" d="M700.444 465.778h-241.778l49.778 46.222c17.778 17.778 17.778 42.667 0 60.444s-46.222 17.778-60.444 0l-124.444-117.333c-17.778-17.778-17.778-42.667 0-60.444l124.444-117.333c17.778-17.778 46.222-17.778 60.444 0 17.778 17.778 17.778 42.667 0 60.444l-49.778 46.222h241.778c21.333 0 35.556 14.222 35.556 35.556v10.667c0 17.778-17.778 35.556-35.556 35.556zM515.556 945.778c-273.778 0-497.778-224-497.778-497.778s224-497.778 497.778-497.778 497.778 224 497.778 497.778-224 497.778-497.778 497.778zM515.556 92.444c-195.556 0-355.556 160-355.556 355.556s160 355.556 355.556 355.556 355.556-160 355.556-355.556c0-195.556-160-355.556-355.556-355.556z" />
<glyph unicode="&#xe93b;" glyph-name="Document_2_shouwenchaxun" d="M835.556 913.778h-643.556c-96 0-174.222-78.222-174.222-174.222v-412.444c0-17.778 14.222-35.556 35.556-35.556 17.778 0 35.556 14.222 35.556 35.556v412.444c0 56.889 46.222 103.111 106.667 103.111h643.556c56.889 0 106.667-46.222 106.667-103.111v-611.556c0-56.889-46.222-103.111-106.667-103.111h-444.444c-17.778 0-35.556-14.222-35.556-35.556 0-17.778 14.222-35.556 35.556-35.556h440.889c96 0 174.222 78.222 174.222 174.222v611.556c0 96-78.222 174.222-174.222 174.222zM800 433.778c0 156.444-128 284.444-288 284.444-156.444 0-288-128-288-284.444 0-64 21.333-120.889 56.889-170.667l-227.556-224c-14.222-14.222-14.222-35.556 0-49.778 7.111-7.111 14.222-10.667 24.889-10.667s17.778 3.556 24.889 10.667l224 224c49.778-39.111 113.778-64 181.333-64 163.556 0 291.556 128 291.556 284.444zM295.111 433.778c0 117.333 96 213.333 216.889 213.333s216.889-96 216.889-213.333c0-117.333-96-213.333-216.889-213.333-117.333 0-216.889 96-216.889 213.333z" />
<glyph unicode="&#xe93c;" glyph-name="Document_2_shouwendengji" d="M832 725.333c-17.778 10.667-39.111 3.556-49.778-14.222l-284.444-519.111c-10.667-17.778-3.556-39.111 14.222-49.778s39.111-3.556 49.778 14.222l284.444 519.111c10.667 17.778 3.556 39.111-14.222 49.778zM796.444 949.333h-568.889c-117.333 0-213.333-96-213.333-213.333v-568.889c0-117.333 96-213.333 213.333-213.333h568.889c117.333 0 213.333 96 213.333 213.333v568.889c0 117.333-96 213.333-213.333 213.333zM938.667 167.111c0-78.222-64-142.222-142.222-142.222h-568.889c-78.222 0-142.222 64-142.222 142.222v568.889c0 78.222 64 142.222 142.222 142.222h568.889c78.222 0 142.222-64 142.222-142.222v-568.889zM320 522.667h192c21.333 0 35.556 14.222 35.556 35.556s-14.222 35.556-35.556 35.556h-192l39.111 39.111c14.222 14.222 14.222 35.556 0 49.778s-35.556 14.222-49.778 0l-99.556-99.556c-14.222-14.222-14.222-35.556 0-49.778l99.556-99.556c14.222-14.222 35.556-14.222 49.778 0s14.222 35.556 0 49.778l-39.111 39.111z" />
<glyph unicode="&#xe93d;" glyph-name="Document_2_shouwenguanli" d="M1027.556 625.778c0 71.111-56.889 128-124.444 128h-373.333c-7.111 0-10.667 3.556-10.667 10.667 0 0 0 39.111 0 39.111-3.556 49.778-46.222 92.444-99.556 92.444h-320c-56.889 0-103.111-46.222-103.111-103.111v-693.333c0-71.111 60.444-128 128-128h238.222c0 0 3.556 0 3.556 0s3.556 0 3.556 0h280.889c0 0 0 0 3.556 0 0 0 0 0 3.556 0h245.333c67.556 0 128 56.889 128 128v423.111l-3.556 103.111zM956.444 99.556c0-32-24.889-56.889-56.889-56.889h-775.111c-32 0-56.889 24.889-56.889 56.889v693.333c0 17.778 14.222 32 32 32h320c14.222 0 24.889-10.667 28.444-24.889v-35.556c0-46.222 35.556-81.778 81.778-81.778h373.333c28.444 0 53.333-24.889 53.333-56.889v-526.222zM721.778 423.111h-334.222l39.111 39.111c14.222 14.222 14.222 35.556 0 49.778s-35.556 14.222-49.778 0l-99.556-99.556c-14.222-14.222-14.222-35.556 0-49.778l99.556-99.556c14.222-14.222 35.556-14.222 49.778 0s14.222 35.556 0 49.778l-39.111 39.111h334.222c21.333 0 35.556 14.222 35.556 35.556s-14.222 35.556-35.556 35.556z" />
<glyph unicode="&#xe93e;" glyph-name="Document_2_taohong" d="M551.111 270.222l-35.556 67.556-35.556-67.556-71.111-14.222 49.778-56.889-10.667-74.667 67.556 32 67.556-32-10.667 74.667 49.778 56.889-71.111 14.222zM800 942.222h-568.889c-117.333 0-213.333-96-213.333-213.333v-568.889c0-117.333 96-213.333 213.333-213.333h568.889c117.333 0 213.333 96 213.333 213.333v568.889c0 117.333-96 213.333-213.333 213.333zM942.222 160c0-78.222-64-142.222-142.222-142.222h-568.889c-78.222 0-142.222 64-142.222 142.222v568.889c0 78.222 64 142.222 142.222 142.222h568.889c78.222 0 142.222-64 142.222-142.222v-568.889zM764.444 693.333h-497.778c-21.333 0-35.556-14.222-35.556-35.556s14.222-35.556 35.556-35.556h497.778c21.333 0 35.556 14.222 35.556 35.556 0 17.778-17.778 35.556-35.556 35.556zM764.444 515.556h-497.778c-21.333 0-35.556-14.222-35.556-35.556s14.222-35.556 35.556-35.556h497.778c21.333 0 35.556 14.222 35.556 35.556 0 17.778-17.778 35.556-35.556 35.556z" />
<glyph unicode="&#xe93f;" glyph-name="Document_2_tuihui" d="M561.778 728.889h-234.667l74.667 74.667c28.444 28.444 28.444 74.667 0 103.111s-71.111 28.444-99.556 0l-195.556-199.111c-14.222-14.222-21.333-32-21.333-49.778s7.111-35.556 21.333-49.778l195.556-199.111c14.222-14.222 32-21.333 49.778-21.333s35.556 7.111 49.778 21.333c28.444 28.444 28.444 74.667 0 103.111l-74.667 74.667h231.111c131.556 0 238.222-106.667 238.222-238.222s-106.667-238.222-238.222-238.222h-323.556c-39.111 0-71.111-32-71.111-71.111s32-71.111 71.111-71.111h327.111c209.778 0 380.444 170.667 380.444 380.444s-170.667 380.444-380.444 380.444z" />
<glyph unicode="&#xe940;" glyph-name="Document_2_wenhao" d="M689.778 622.222c0 21.333-14.222 35.556-35.556 35.556h-355.556c-21.333 0-35.556-14.222-35.556-35.556s14.222-35.556 35.556-35.556h142.222v-391.111c0-21.333 14.222-35.556 35.556-35.556s35.556 14.222 35.556 35.556v391.111h142.222c21.333 0 35.556 14.222 35.556 35.556zM760.889 408.889h-142.222c-21.333 0-35.556-14.222-35.556-35.556s14.222-35.556 35.556-35.556h35.556v-142.222c0-21.333 14.222-35.556 35.556-35.556s35.556 14.222 35.556 35.556v142.222h35.556c21.333 0 35.556 14.222 35.556 35.556 0 17.778-14.222 35.556-35.556 35.556zM796.444 942.222h-568.889c-117.333 0-213.333-96-213.333-213.333v-568.889c0-117.333 96-213.333 213.333-213.333h568.889c117.333 0 213.333 96 213.333 213.333v568.889c0 117.333-96 213.333-213.333 213.333zM938.667 160c0-78.222-64-142.222-142.222-142.222h-568.889c-78.222 0-142.222 64-142.222 142.222v568.889c0 78.222 64 142.222 142.222 142.222h568.889c78.222 0 142.222-64 142.222-142.222v-568.889z" />
<glyph unicode="&#xe941;" glyph-name="wodefawen" d="M728.889 376.889h-497.778c-21.333 0-35.556-14.222-35.556-35.556s14.222-35.556 35.556-35.556h497.778c21.333 0 35.556 14.222 35.556 35.556 0 17.778-14.222 35.556-35.556 35.556zM800 945.778h-568.889c-117.333 0-213.333-96-213.333-213.333v-568.889c0-117.333 96-213.333 213.333-213.333h568.889c117.333 0 213.333 96 213.333 213.333v568.889c0 117.333-96 213.333-213.333 213.333zM942.222 163.556c0-78.222-64-142.222-142.222-142.222h-568.889c-78.222 0-142.222 64-142.222 142.222v568.889c0 78.222 64 142.222 142.222 142.222h568.889c78.222 0 142.222-64 142.222-142.222v-568.889zM231.111 519.111h284.444c21.333 0 35.556 14.222 35.556 35.556s-14.222 35.556-35.556 35.556h-284.444c-21.333 0-35.556-14.222-35.556-35.556s17.778-35.556 35.556-35.556z" />
<glyph unicode="&#xe942;" glyph-name="Document_2_wodeshouwen" d="M835.556 928h-643.556c-96 0-174.222-78.222-174.222-174.222v-611.556c0-96 78.222-174.222 174.222-174.222h440.889c17.778 0 35.556 14.222 35.556 35.556 0 17.778-14.222 35.556-35.556 35.556h-440.889c-56.889 0-106.667 46.222-106.667 103.111v611.556c0 56.889 46.222 103.111 106.667 103.111h643.556c56.889 0 106.667-46.222 106.667-103.111v-412.444c0-17.778 14.222-35.556 35.556-35.556 17.778 0 35.556 14.222 35.556 35.556v412.444c-3.556 96-81.778 174.222-177.778 174.222zM533.333 497.778h174.222c32 0 60.444 14.222 60.444 35.556s-24.889 35.556-60.444 35.556h-238.222c-7.111 0-10.667 0-14.222 0s-3.556 0-7.111 0c-7.111 0-17.778-3.556-21.333-14.222-7.111-7.111-14.222-14.222-14.222-21.333 0-3.556 0-3.556 0-7.111s0-10.667 0-14.222v-238.222c0-32 14.222-60.444 35.556-60.444s35.556 24.889 35.556 60.444v174.222l437.333-437.333c14.222-14.222 35.556-14.222 49.778 0s14.222 35.556 0 49.778l-437.333 437.333z" />
<glyph unicode="&#xe943;" glyph-name="yifasong" d="M977.778 394.667c-17.778 0-35.556-14.222-35.556-35.556v-234.667c0-56.889-46.222-103.111-106.667-103.111h-643.556c-56.889 0-106.667 46.222-106.667 103.111v611.556c0 56.889 46.222 103.111 106.667 103.111h263.111c17.778 0 35.556 14.222 35.556 35.556 0 17.778-14.222 35.556-35.556 35.556h-263.111c-96 0-174.222-78.222-174.222-174.222v-611.556c0-96 78.222-174.222 174.222-174.222h643.556c96 0 174.222 78.222 174.222 174.222v234.667c0 17.778-14.222 35.556-32 35.556zM714.667 846.222h174.222l-437.333-437.333c-14.222-14.222-14.222-35.556 0-49.778s35.556-14.222 49.778 0l437.333 437.333v-174.222c0-32 14.222-60.444 35.556-60.444s35.556 24.889 35.556 60.444v234.667c0 7.111 0 10.667 0 14.222s0 3.556 0 7.111c0 7.111-3.556 17.778-14.222 21.333-7.111 7.111-14.222 14.222-21.333 14.222-3.556 0-7.111 0-7.111 0-3.556 0-10.667 0-14.222 0h-238.222c-32 0-60.444-14.222-60.444-35.556 0-17.778 28.444-32 60.444-32z" />
<glyph unicode="&#xe944;" glyph-name="Document_2_yinzhang" d="M867.556 508.444h-238.222c-3.556 21.333 3.556 42.667 17.778 60.444l81.778 81.778c96 96 24.889 252.444-113.778 252.444h-209.778c-138.667 0-206.222-156.444-113.778-252.444l81.778-81.778c17.778-17.778 21.333-39.111 17.778-60.444h-238.222c-78.222 0-145.778-64-145.778-138.667s64-138.667 145.778-138.667h707.556c78.222 0 145.778 64 145.778 138.667s-60.444 138.667-138.667 138.667zM796.444 298.667h-565.333c-78.222 0-145.778-7.111-145.778 67.556s64 67.556 145.778 67.556h238.222c3.556 21.333-3.556 113.778-17.778 131.556l-46.222 81.778c-135.111 99.556-88.889 184.889 7.111 181.333h209.778c92.444 3.556 128-85.333 7.111-181.333l-46.222-81.778c-17.778-17.778-21.333-110.222-17.778-131.556h238.222c78.222 0 145.778 7.111 145.778-67.556s-74.667-67.556-152.889-67.556zM871.111 120.889h-711.111c-21.333 0-35.556-14.222-35.556-35.556s14.222-35.556 35.556-35.556h711.111c21.333 0 35.556 14.222 35.556 35.556 0 17.778-17.778 35.556-35.556 35.556z" />
<glyph unicode="&#xe945;" glyph-name="Document_2_zhengwenmuban" d="M974.222 263.111h-426.667c-21.333 0-35.556-14.222-35.556-35.556s14.222-35.556 35.556-35.556h426.667c21.333 0 35.556 14.222 35.556 35.556s-14.222 35.556-35.556 35.556zM334.222 512h-213.333c-60.444 0-106.667-46.222-106.667-106.667v-355.556c0-60.444 46.222-106.667 106.667-106.667h213.333c60.444 0 106.667 46.222 106.667 106.667v355.556c0 60.444-46.222 106.667-106.667 106.667zM369.778 49.778c0-21.333-14.222-35.556-35.556-35.556h-213.333c-21.333 0-35.556 14.222-35.556 35.556v355.556c0 21.333 14.222 35.556 35.556 35.556h213.333c21.333 0 35.556-14.222 35.556-35.556v-355.556zM903.111 938.667h-782.222c-60.444 0-106.667-46.222-106.667-106.667v-142.222c0-60.444 46.222-106.667 106.667-106.667h782.222c60.444 0 106.667 46.222 106.667 106.667v142.222c0 60.444-46.222 106.667-106.667 106.667zM938.667 689.778c0-21.333-14.222-35.556-35.556-35.556h-782.222c-21.333 0-35.556 14.222-35.556 35.556v142.222c0 21.333 14.222 35.556 35.556 35.556h782.222c21.333 0 35.556-14.222 35.556-35.556v-142.222zM974.222 476.444h-426.667c-21.333 0-35.556-14.222-35.556-35.556s14.222-35.556 35.556-35.556h426.667c21.333 0 35.556 14.222 35.556 35.556s-14.222 35.556-35.556 35.556zM974.222 49.778h-426.667c-21.333 0-35.556-14.222-35.556-35.556s14.222-35.556 35.556-35.556h426.667c21.333 0 35.556 14.222 35.556 35.556s-14.222 35.556-35.556 35.556z" />
<glyph unicode="&#xe946;" glyph-name="delete_arrow" d="M512 945.778c-273.778 0-497.778-224-497.778-497.778s224-497.778 497.778-497.778c273.778 0 497.778 224 497.778 497.778s-224 497.778-497.778 497.778zM512 92.444c-195.556 0-355.556 160-355.556 355.556s160 355.556 355.556 355.556c195.556 0 355.556-160 355.556-355.556s-160-355.556-355.556-355.556zM689.778 622.222c-28.444 28.444-71.111 28.444-99.556 0l-74.667-74.667-74.667 74.667c-28.444 28.444-71.111 28.444-99.556 0s-28.444-71.111 0-99.556l74.667-74.667-74.667-74.667c-28.444-28.444-28.444-71.111 0-99.556s71.111-28.444 99.556 0l74.667 74.667 74.667-74.667c28.444-28.444 71.111-28.444 99.556 0s28.444 71.111 0 99.556l-74.667 74.667 74.667 74.667c24.889 28.444 24.889 71.111 0 99.556z" />
<glyph unicode="&#xe947;" glyph-name="dengji" d="M554.667 263.111v241.778c0 32-24.889 60.444-60.444 60.444-32 0-60.444-28.444-60.444-60.444v-241.778c0-32 24.889-60.444 60.444-60.444 32 0 60.444 28.444 60.444 60.444v0zM792.889 750.222h-163.556c0 0 0 0 0 3.556 0 67.556-53.333 120.889-117.333 120.889s-117.333-53.333-117.333-120.889c0 0 0 0 0-3.556h-192c-32 0-60.444-28.444-60.444-60.444s24.889-60.444 60.444-60.444h593.778c32 0 60.444 28.444 60.444 60.444-7.111 32-32 60.444-64 60.444v0zM732.444 568.889c-32 0-60.444-28.444-60.444-60.444v-305.778c0-32-24.889-60.444-60.444-60.444h-238.222c-32 0-60.444 28.444-60.444 60.444v305.778c0 32-24.889 60.444-60.444 60.444-32 0-60.444-28.444-60.444-60.444v-366.222c0-67.556 53.333-120.889 117.333-120.889h355.556c64 0 117.333 53.333 117.333 120.889v366.222c10.667 32-17.778 60.444-49.778 60.444v0z" />
<glyph unicode="&#xe948;" glyph-name="add" d="M853.333 501.333h-284.444v284.444c0 21.333-14.222 35.556-35.556 35.556h-35.556c-21.333 0-35.556-14.222-35.556-35.556v-284.444h-284.444c-21.333 0-35.556-14.222-35.556-35.556v-35.556c0-21.333 14.222-35.556 35.556-35.556h284.444v-284.444c0-21.333 14.222-35.556 35.556-35.556h35.556c21.333 0 35.556 14.222 35.556 35.556v284.444h284.444c21.333 0 35.556 14.222 35.556 35.556v35.556c0 17.778-17.778 35.556-35.556 35.556z" />
<glyph unicode="&#xe949;" glyph-name="down_arrow" d="M856.889 533.333c-14.222 14.222-39.111 14.222-53.333 0l-291.556-263.111-291.556 263.111c-14.222 14.222-39.111 14.222-53.333 0s-14.222-35.556 0-46.222l316.444-288c14.222-14.222 39.111-14.222 53.333 0l316.444 288c17.778 10.667 17.778 32 3.556 46.222z" />
<glyph unicode="&#xe94a;" glyph-name="icon-announce" horiz-adv-x="963" d="M309.092 359.284c-31.702 0-57.419-25.717-57.419-57.419s25.717-57.419 57.419-57.419 57.419 25.717 57.419 57.419-25.717 57.419-57.419 57.419zM826.026 617.75h-85.724c-2.426 10.028-7.44 19.409-15.204 27.173l-203.15 202.988c-22.482 22.482-58.713 22.482-81.195 0l-202.988-202.988c-7.764-7.764-12.778-17.307-15.204-27.173h-85.724c-47.553 0-86.209-38.495-86.209-86.209v-459.352c0-47.553 38.495-86.209 86.209-86.209h689.029c47.553 0 86.209 38.495 86.209 86.209v459.352c0 47.553-38.495 86.209-86.048 86.209zM481.35 726.118l108.368-108.368h-216.737l108.368 108.368zM797.235 129.607c0-15.851-12.778-28.79-28.79-28.79h-574.19c-15.851 0-28.79 12.778-28.79 28.79v344.514c0 15.851 12.778 28.79 28.79 28.79h574.19c15.851 0 28.79-12.778 28.79-28.79v-344.514zM481.35 359.284c-31.702 0-57.419-25.717-57.419-57.419s25.717-57.419 57.419-57.419 57.419 25.717 57.419 57.419-25.717 57.419-57.419 57.419zM653.607 359.284c-31.702 0-57.419-25.717-57.419-57.419s25.717-57.419 57.419-57.419 57.419 25.717 57.419 57.419-25.556 57.419-57.419 57.419z" />
<glyph unicode="&#xe94b;" glyph-name="king-download" d="M481.28 158.208c17.408-20.992 42.496-21.504 60.416-1.024l292.864 285.184c10.24 10.24 3.072 27.648-11.264 27.648h-237.056v398.336c0 8.704-7.168 15.872-15.872 15.872h-117.248c-8.704 0-15.872-7.168-15.872-15.872v-398.336h-237.568c-14.336 0-21.504-17.408-11.264-27.648l292.864-284.16zM160.256 48.128v-36.352h702.464v36.352h-702.464z" />
<glyph unicode="&#xe94c;" glyph-name="icon-handle02" horiz-adv-x="870" d="M798.72 960h-727.040c-43.52 0-71.68-28.16-71.68-74.24v-878.080c0-43.52 28.16-71.68 71.68-71.68h724.48c43.52 0 71.68 28.16 71.68 74.24v875.52c2.56 38.4-33.28 74.24-69.12 74.24zM798.72 46.080c0-23.040-15.36-35.84-35.84-35.84h-655.36c-20.48 0-35.84 15.36-35.84 35.84v803.84c0 23.040 15.36 35.84 35.84 35.84h652.8c23.040 0 35.84-15.36 35.84-35.84v-803.84zM499.2 360.96l-179.2-184.32-79.36 74.24c-15.36 15.36-35.84 15.36-51.2 0s-15.36-35.84 0-51.2l99.84-102.4c7.68-7.68 15.36-7.68 28.16-7.68 7.68 0 20.48 0 28.16 7.68l202.24 204.8c15.36 15.36 15.36 35.84 0 51.2-10.24 23.040-33.28 23.040-48.64 7.68v0zM680.96 729.6h-217.6c-20.48 0-35.84-15.36-35.84-35.84s15.36-35.84 35.84-35.84h217.6c20.48 0 35.84 15.36 35.84 35.84s-15.36 35.84-35.84 35.84zM680.96 583.68h-217.6c-20.48 0-35.84-15.36-35.84-35.84 0-23.040 15.36-35.84 35.84-35.84h217.6c20.48 0 35.84 15.36 35.84 35.84s-15.36 35.84-35.84 35.84z" />
<glyph unicode="&#xe94d;" glyph-name="more-handle" d="M626.462 829.539c0 64.862-49.6 114.462-114.462 114.462s-114.462-49.6-114.462-114.462 49.6-114.462 114.462-114.462 114.462 49.6 114.462 114.462zM626.462 448c0 64.862-49.6 114.462-114.462 114.462s-114.462-49.6-114.462-114.462 49.6-114.462 114.462-114.462 114.462 49.6 114.462 114.462zM626.462 66.461c0 64.862-49.6 114.462-114.462 114.462s-114.462-49.6-114.462-114.462 49.6-114.462 114.462-114.462 114.462 49.6 114.462 114.462z" />
<glyph unicode="&#xe94e;" glyph-name="Document_up" horiz-adv-x="1558" d="M1382.4 67.657l124.343 124.343-702.171 702.171-702.171-702.171 124.343-124.343 577.829 577.829 577.829-577.829z" />
<glyph unicode="&#xe94f;" glyph-name="Document_zhengwenmuban" d="M974.222 263.111h-426.667c-21.333 0-35.556-14.222-35.556-35.556s14.222-35.556 35.556-35.556h426.667c21.333 0 35.556 14.222 35.556 35.556s-14.222 35.556-35.556 35.556zM334.222 512h-213.333c-60.444 0-106.667-46.222-106.667-106.667v-355.556c0-60.444 46.222-106.667 106.667-106.667h213.333c60.444 0 106.667 46.222 106.667 106.667v355.556c0 60.444-46.222 106.667-106.667 106.667zM369.778 49.778c0-21.333-14.222-35.556-35.556-35.556h-213.333c-21.333 0-35.556 14.222-35.556 35.556v355.556c0 21.333 14.222 35.556 35.556 35.556h213.333c21.333 0 35.556-14.222 35.556-35.556v-355.556zM903.111 938.667h-782.222c-60.444 0-106.667-46.222-106.667-106.667v-142.222c0-60.444 46.222-106.667 106.667-106.667h782.222c60.444 0 106.667 46.222 106.667 106.667v142.222c0 60.444-46.222 106.667-106.667 106.667zM938.667 689.778c0-21.333-14.222-35.556-35.556-35.556h-782.222c-21.333 0-35.556 14.222-35.556 35.556v142.222c0 21.333 14.222 35.556 35.556 35.556h782.222c21.333 0 35.556-14.222 35.556-35.556v-142.222zM974.222 476.444h-426.667c-21.333 0-35.556-14.222-35.556-35.556s14.222-35.556 35.556-35.556h426.667c21.333 0 35.556 14.222 35.556 35.556s-14.222 35.556-35.556 35.556zM974.222 49.778h-426.667c-21.333 0-35.556-14.222-35.556-35.556s14.222-35.556 35.556-35.556h426.667c21.333 0 35.556 14.222 35.556 35.556s-14.222 35.556-35.556 35.556z" />
<glyph unicode="&#xe950;" glyph-name="local_hospital" d="M768 340.667v172h-170v170h-172v-170h-170v-172h170v-170h172v170h170zM810 810.667c46 0 86-40 86-86v-596c0-46-40-86-86-86h-596c-46 0-86 40-86 86v596c0 46 40 86 86 86h596z" />
<glyph unicode="&#xe951;" glyph-name="map-pin2" d="M512 938.667c-234.667 0-426.667-192-426.667-426.667 0-315.733 388.267-580.267 401.067-588.8 8.533-4.267 17.067-8.533 25.6-8.533s17.067 4.267 25.6 8.533c12.8 8.533 401.067 273.067 401.067 588.8 0 234.667-192 426.667-426.667 426.667zM512 8.534c-81.067 59.733-341.333 273.067-341.333 503.467 0 187.733 153.6 341.333 341.333 341.333s341.333-153.6 341.333-341.333c0-230.4-260.267-443.733-341.333-503.467zM512 682.667c-93.867 0-170.667-76.8-170.667-170.667s76.8-170.667 170.667-170.667c93.867 0 170.667 76.8 170.667 170.667s-76.8 170.667-170.667 170.667zM512 426.667c-46.933 0-85.333 38.4-85.333 85.333s38.4 85.333 85.333 85.333c46.933 0 85.333-38.4 85.333-85.333s-38.4-85.333-85.333-85.333z" />
<glyph unicode="&#xe952;" glyph-name="book" d="M544 128c0 0 198.016 65.984 352-57.984 0 1.984 0 57.984 0 57.984-180 100-352 0-352 0zM64 768v-636c0 0 86.016 62.016 208 62.016s208-62.016 208-62.016v628c0 0-86.016 72-208 72s-208-64-208-64zM128 704h128v-160h-128v160zM416 288h-288v32h288v-32zM416 352h-288v32h288v-32zM416 416h-288v32h288v-32zM416 480h-288v32h288v-32zM288 704h128v-32h-128v32zM288 640h128v-32h-128v32zM288 576h128v-32h-128v32zM720 832c-121.984 0-208-64-208-64v-636c0 0 86.016 62.016 208 62.016s208-62.016 208-62.016v628c0 0-86.016 72-208 72zM864 288h-288v32h288v-32zM864 352h-288v32h288v-32zM864 416h-288v32h288v-32zM864 480h-288v32h288v-32zM864 544h-288v32h288v-32zM864 608h-288v32h288v-32zM864 672h-288v32h288v-32zM96 128c0 0 0-56 0-57.984 153.984 123.968 352 57.984 352 57.984s-172 100-352 0z" />
<glyph unicode="&#xe953;" glyph-name="book2" d="M480 132v628c0 0-86.016 72-208 72s-208-64-208-64v-636c0 0 86.016 62.016 208 62.016s208-62.016 208-62.016zM928 132v628c0 0-86.016 72-208 72s-208-64-208-64v-636c0 0 86.016 62.016 208 62.016s208-62.016 208-62.016zM992 704h-32v-608h-384v-32h-160v32h-384v608h-32v-640h384v-32h225.984l-1.984 32h384v640z" />
<glyph unicode="&#xe954;" glyph-name="pen" d="M212 382.592l-104.416-317.952 139.552 140.064c-9.6 24.224-7.232 65.6 12.384 85.184 26.272 26.304 69.536 25.696 95.808-0.608 26.304-26.304 27.712-70.336 1.44-96.64-20-20-63.936-21.152-88.448-10.784l-138.336-138.72 310.432 109.056 113.056 203.648-137.728 135.872-203.744-109.12zM735.392 852.832c0 0-192.352-192.32-222.016-222.016-29.728-29.696-45.248-141.408-45.248-141.408l86.24-86.272c0 0 108.896 15.552 140 46.688 31.136 31.104 222.016 222.016 222.016 222.016l-180.992 180.992z" />
<glyph unicode="&#xe955;" glyph-name="tools" horiz-adv-x="992" d="M6.752 779.328c-27.104-27.136-21.312-65.344 0.256-86.88 0.864-0.832 87.488-83.584 209.312-205.408 3.136-3.136 7.232-4.672 11.328-4.672s8.192 1.568 11.328 4.672c6.24 6.24 6.24 16.384 0 22.624-18.368 18.368-35.84 35.744-52.416 52.192l50.848 50.848c6.24 6.24 6.24 16.384 0 22.624s-16.384 6.24-22.624 0l-50.976-50.976c-28.512 28.16-53.632 52.736-74.080 72.672l115.68 115.68c6.24 6.24 6.24 16.384 0 22.624s-16.384 6.24-22.624 0l-116.032-116.032c-23.552 22.816-37.12 35.776-37.344 36-6.752 6.752-15.616 25.76 0 41.376l160 160c6.176 6.272 22.624 18.72 40.672 0.768 0.8-0.896 81.6-92.672 204.928-216 6.24-6.24 16.384-6.24 22.624 0s6.24 16.384 0 22.624c-122.56 122.528-202.752 213.6-204.224 215.264-29.824 29.76-65.792 20.832-86.624 0l-160.032-160zM685.408 187.328c-6.24 6.24-16.384 6.24-22.624 0l-50.912-50.88c-15.52 15.712-31.808 32.16-48.96 49.312-6.24 6.24-16.384 6.24-22.624 0s-6.24-16.384 0-22.624c118.528-118.496 201.312-207.008 202.496-208.288 10.976-11.008 26.016-17.056 42.336-17.056v0c16.8 0 33.792 6.56 44.32 17.12l159.936 161.824c20.128 20.128 21.28 54.272 2.496 73.12l-214.592 214.56c-6.24 6.24-16.384 6.24-22.624 0s-6.24-16.384 0-22.624l214.592-214.56c6.4-6.4 5.184-20.224-2.528-27.936l-159.968-161.824c-3.68-3.712-12.032-7.68-21.632-7.68 0 0 0 0 0 0-5.504 0-13.376 1.344-19.328 7.328-0.32 0.352-13.728 14.656-36.992 39.008l116.608 116.608c6.24 6.24 6.24 16.384 0 22.624s-16.384 6.24-22.624 0l-116.128-116.128c-19.968 20.768-44.448 46.016-72.32 74.432l51.072 51.072c6.24 6.208 6.24 16.32 0 22.592zM-9.376-58.528c3.072-3.136 7.2-4.8 11.456-4.8 1.536 0 3.072 0.224 4.576 0.672l320 95.328c2.592 0.768 4.896 2.144 6.784 4.064l546.88 550.56c0.768 0.768 1.152 1.76 1.728 2.624l116.992 116.992c9.408 9.44 14.624 21.952 14.624 35.296 0 13.312-5.216 25.824-14.624 35.2l-167.52 167.488c-18.816 18.816-51.68 18.816-70.496 0l-119.648-119.648c-0.768-0.768-1.184-1.76-1.76-2.656l-547.712-547.744c-1.792-1.792-3.136-3.968-3.904-6.368l-101.12-310.88c-1.856-5.664-0.416-11.84 3.744-16.128zM653.6 791.328l33.248-33.248-496.736-498.080-55.264 12.544 518.752 518.784zM210.080 234.688l499.424 500.736 77.952-77.952-503.936-497.472h-73.44v74.688zM846.368 598.528l-519.808-523.328-18.464 64.064 501.984 495.584 36.288-36.32zM113.856 244.512l64.224-14.592v-85.92c0-8.832 7.168-16 16-16h83.968l20.288-70.4-271.616-80.928 87.136 267.84zM783.68 922.272c6.752 6.752 18.496 6.752 25.248 0l167.52-167.52c3.36-3.36 5.216-7.84 5.216-12.608 0-4.736-1.856-9.248-5.248-12.64l-107.872-107.904-192.736 192.736 107.872 107.936z" />
<glyph unicode="&#xe956;" glyph-name="map-location" horiz-adv-x="768" d="M384 960c-211.744 0-384-172.608-384-384.704 0-317.664 358.432-622.688 373.696-635.52 2.976-2.528 6.656-3.776 10.304-3.776 3.616 0 7.232 1.216 10.176 3.648 15.264 12.608 373.824 312.384 373.824 635.648 0 212.096-172.256 384.704-384 384.704zM384.064-26.816c-58.912 52.64-352.064 328.288-352.064 602.112 0 194.496 157.92 352.704 352 352.704s352-158.208 352-352.704c0-278.464-292.864-550.176-351.936-602.112zM384 768c-105.888 0-192-86.112-192-192s86.112-192 192-192 192 86.112 192 192-86.112 192-192 192zM384 416c-88.224 0-160 71.776-160 160s71.776 160 160 160 160-71.776 160-160-71.776-160-160-160z" />
<glyph unicode="&#xe957;" glyph-name="user" horiz-adv-x="731" d="M731.429 151.428c0-83.429-54.857-151.429-121.714-151.429h-488c-66.857 0-121.714 68-121.714 151.429 0 150.286 37.143 324 186.857 324 46.286-45.143 109.143-73.143 178.857-73.143s132.571 28 178.857 73.143c149.714 0 186.857-173.714 186.857-324zM585.143 658.286c0-121.143-98.286-219.429-219.429-219.429s-219.429 98.286-219.429 219.429 98.286 219.429 219.429 219.429 219.429-98.286 219.429-219.429z" />
<glyph unicode="&#xe958;" glyph-name="more-horizontal" d="M597.333 426.667c0-47.128-38.205-85.333-85.333-85.333s-85.333 38.205-85.333 85.333c0 47.128 38.205 85.333 85.333 85.333s85.333-38.205 85.333-85.333zM896 426.667c0-47.128-38.205-85.333-85.333-85.333s-85.333 38.205-85.333 85.333c0 47.128 38.205 85.333 85.333 85.333s85.333-38.205 85.333-85.333zM298.667 426.667c0-47.128-38.205-85.333-85.333-85.333s-85.333 38.205-85.333 85.333c0 47.128 38.205 85.333 85.333 85.333s85.333-38.205 85.333-85.333z" />
<glyph unicode="&#xe959;" glyph-name="flight_takeoff" d="M942 526.667c8-34-12-68-46-78-137.558-36.442-275.002-72.998-412-110l-226-60-68-20c-37.52 63.813-74.693 127.974-112 192l62 16 84-64 212 56-176 306 82 22 294-274 228 60c34 10 70-12 78-46zM106 128.667h812v-86h-812v86z" />
<glyph unicode="&#xe95a;" glyph-name="pacman, game" d="M555.584 433.984l266.848-271.456c-68-61.056-157.6-98.528-256.192-98.528-212.064 0-384 171.936-384 384s171.936 384 384 384c108.16 0 205.696-44.864 275.488-116.8l-286.144-281.216zM581.568 705.344c-26.496 0-47.968-21.504-47.968-48 0-26.528 21.472-48 47.968-48 26.528 0 48.032 21.472 48.032 48 0 26.496-21.504 48-48.032 48z" />
<glyph unicode="&#xe95b;" glyph-name="office" d="M0-64h512v1024h-512v-1024zM320 832h128v-128h-128v128zM320 576h128v-128h-128v128zM320 320h128v-128h-128v128zM64 832h128v-128h-128v128zM64 576h128v-128h-128v128zM64 320h128v-128h-128v128zM576 640h448v-64h-448zM576-64h128v256h192v-256h128v576h-448z" />
<glyph unicode="&#xe95c;" glyph-name="coin-yen" d="M480 896c-265.096 0-480-214.904-480-480s214.904-480 480-480c265.098 0 480 214.902 480 480s-214.902 480-480 480zM480 32c-212.078 0-384 171.922-384 384s171.922 384 384 384c212.076 0 384-171.922 384-384s-171.924-384-384-384zM608 384c17.674 0 32 14.326 32 32s-14.326 32-32 32h-68.208l94.832 142.25c9.804 14.704 5.83 34.572-8.876 44.376-14.704 9.802-34.572 5.83-44.376-8.876l-101.372-152.062-101.374 152.062c-9.804 14.706-29.672 18.68-44.376 8.876-14.706-9.804-18.678-29.672-8.876-44.376l94.834-142.25h-68.208c-17.672 0-32-14.326-32-32s14.328-32 32-32h96v-64h-96c-17.672 0-32-14.326-32-32s14.328-32 32-32h96v-96c0-17.674 14.328-32 32-32s32 14.326 32 32v96h96c17.674 0 32 14.326 32 32s-14.326 32-32 32h-96v64h96z" />
<glyph unicode="&#xe95d;" glyph-name="global-im" d="M511.999 84.708l-104.589 111.374h-111.987c-91.644 0-166.236 74.592-166.236 166.236v282.741c0 91.644 74.592 166.236 166.236 166.236h433.153c91.644 0 166.236-74.592 166.236-166.236v-282.741c0-91.644-74.592-166.236-166.236-166.236h-112.606l-103.976-111.374zM295.422 762.594c-64.933 0-117.742-52.809-117.742-117.742v-282.741c0-64.933 52.809-117.742 117.742-117.742h133.151l83.425-88.972 83.014 88.972h133.562c64.933 0 117.742 52.809 117.742 117.742v282.949c0 64.933-52.809 117.742-117.742 117.742h-433.153zM296.036 589.167h410.346v-48.697h-410.346v48.697zM384.394 457.040h233.634v-48.697h-233.634v48.697z" />
<glyph unicode="&#xe95e;" glyph-name="heart" d="M736 896c-76.928 0-138.592-27.616-192.96-82.016-0.032-0.032-0.064-0.064-0.096-0.096h-0.032l-30.912-38.944-30.912 36.576c-0.032 0.032-0.064 0.064-0.096 0.096h-0.032c-54.4 54.432-116.032 84.384-192.96 84.384s-149.248-29.952-203.648-84.352c-54.368-54.4-84.352-126.72-84.352-203.648 0-76.864 29.92-149.184 84.256-203.552l382.304-385.504c12-12.128 28.384-18.944 45.44-18.944s33.44 6.816 45.44 18.944l382.272 385.504c54.336 54.368 84.288 126.656 84.288 203.552 0 76.928-29.984 149.248-84.352 203.648-54.4 54.4-126.72 84.352-203.648 84.352v0z" />
<glyph unicode="&#xe95f;" glyph-name="heart2" d="M512 0c-9.143 0-18.286 3.429-25.143 10.286l-356.571 344c-4.571 4-130.286 118.857-130.286 256 0 167.429 102.286 267.429 273.143 267.429 100 0 193.714-78.857 238.857-123.429 45.143 44.571 138.857 123.429 238.857 123.429 170.857 0 273.143-100 273.143-267.429 0-137.143-125.714-252-130.857-257.143l-356-342.857c-6.857-6.857-16-10.286-25.143-10.286z" />
<glyph unicode="&#xe960;" glyph-name="heart3" d="M513.344 692.96c0 0-64 136.384-208 136.384-157.344 0-240-133.344-240-266.656 0-221.344 448-496 448-496s445.312 272 445.312 496c0 136-85.312 266.656-237.312 266.656s-208-136.384-208-136.384z" />
<glyph unicode="&#xe961;" glyph-name="image_default" horiz-adv-x="1097" d="M365.714 621.714c0-60.571-49.143-109.714-109.714-109.714s-109.714 49.143-109.714 109.714 49.143 109.714 109.714 109.714 109.714-49.143 109.714-109.714zM950.857 402.286v-256h-804.571v109.714l182.857 182.857 91.429-91.429 292.571 292.571zM1005.714 804.571h-914.286c-9.714 0-18.286-8.571-18.286-18.286v-694.857c0-9.714 8.571-18.286 18.286-18.286h914.286c9.714 0 18.286 8.571 18.286 18.286v694.857c0 9.714-8.571 18.286-18.286 18.286zM1097.143 786.286v-694.857c0-50.286-41.143-91.429-91.429-91.429h-914.286c-50.286 0-91.429 41.143-91.429 91.429v694.857c0 50.286 41.143 91.429 91.429 91.429h914.286c50.286 0 91.429-41.143 91.429-91.429z" />
<glyph unicode="&#xe962;" glyph-name="drivers-license-o, id-card-o" horiz-adv-x="1170" d="M512 258.286c0-41.714-27.429-75.429-61.143-75.429h-243.429c-33.714 0-61.143 33.714-61.143 75.429 0 75.429 18.286 162.286 93.714 162.286 22.857-22.857 54.286-36.571 89.143-36.571s66.286 13.714 89.143 36.571c75.429 0 93.714-86.857 93.714-162.286zM438.857 512c0-60.571-49.143-109.714-109.714-109.714s-109.714 49.143-109.714 109.714 49.143 109.714 109.714 109.714 109.714-49.143 109.714-109.714zM1024 274.286v-36.571c0-10.286-8-18.286-18.286-18.286h-402.286c-10.286 0-18.286 8-18.286 18.286v36.571c0 10.286 8 18.286 18.286 18.286h402.286c10.286 0 18.286-8 18.286-18.286zM804.571 420.571v-36.571c0-10.286-8-18.286-18.286-18.286h-182.857c-10.286 0-18.286 8-18.286 18.286v36.571c0 10.286 8 18.286 18.286 18.286h182.857c10.286 0 18.286-8 18.286-18.286zM1024 420.571v-36.571c0-10.286-8-18.286-18.286-18.286h-109.714c-10.286 0-18.286 8-18.286 18.286v36.571c0 10.286 8 18.286 18.286 18.286h109.714c10.286 0 18.286-8 18.286-18.286zM1024 566.857v-36.571c0-10.286-8-18.286-18.286-18.286h-402.286c-10.286 0-18.286 8-18.286 18.286v36.571c0 10.286 8 18.286 18.286 18.286h402.286c10.286 0 18.286-8 18.286-18.286zM1097.143 91.428v640h-1024v-640c0-9.714 8.571-18.286 18.286-18.286h987.429c9.714 0 18.286 8.571 18.286 18.286zM1170.286 786.286v-694.857c0-50.286-41.143-91.429-91.429-91.429h-987.429c-50.286 0-91.429 41.143-91.429 91.429v694.857c0 50.286 41.143 91.429 91.429 91.429h987.429c50.286 0 91.429-41.143 91.429-91.429z" />
<glyph unicode="&#xe963;" glyph-name="exclamation-solid" d="M150.016 98.816c-96.436 93.233-156.308 223.762-156.308 368.276 0 282.77 229.23 512 512 512 144.514 0 275.043-59.872 368.137-156.164l0.138-0.144c88.925-91.979 143.724-217.436 143.724-355.692 0-282.77-229.23-512-512-512-138.256 0-263.713 54.799-355.836 143.863l0.144-0.138zM460.8 716.8v-307.2h102.4v307.2h-102.4zM460.8 307.2v-102.4h102.4v102.4h-102.4z" />
<glyph unicode="&#xe964;" glyph-name="exclamation-outline" d="M150.016 98.816c-96.436 93.233-156.308 223.762-156.308 368.276 0 282.77 229.23 512 512 512 144.514 0 275.043-59.872 368.137-156.164l0.138-0.144c88.925-91.979 143.724-217.436 143.724-355.692 0-282.77-229.23-512-512-512-138.256 0-263.713 54.799-355.836 143.863l0.144-0.138zM801.792 171.008c74.164 74.164 120.036 176.621 120.036 289.792 0 226.342-183.486 409.828-409.828 409.828-113.171 0-215.628-45.872-289.792-120.036v0c-74.164-74.164-120.036-176.621-120.036-289.792 0-226.342 183.486-409.828 409.828-409.828 113.171 0 215.628 45.872 289.792 120.036v0zM460.8 716.8h102.4v-307.2h-102.4v307.2zM460.8 307.2h102.4v-102.4h-102.4v102.4z" />
<glyph unicode="&#xe965;" glyph-name="notice" d="M496 848c-229.76 0-416-186.24-416-416s186.24-416 416-416 416 186.24 416 416-186.24 416-416 416zM496 196c-26.528 0-48 21.504-48 48s21.472 48 48 48c26.496 0 48-21.504 48-48s-21.504-48-48-48zM544 404c0-26.496-21.504-48-48-48-26.528 0-48 21.504-48 48v224c0 26.528 21.472 48 48 48 26.496 0 48-21.472 48-48v-224z" />
<glyph unicode="&#xe966;" glyph-name="exclamation" d="M512-64c-282.75 0-512 229.218-512 512 0 282.75 229.25 512 512 512s512-229.25 512-512c0-282.782-229.25-512-512-512zM512 832c-212.062 0-384-171.938-384-384s171.938-384 384-384 384 171.938 384 384-171.938 384-384 384zM448 320h128v-128h-128v128zM448 704h128v-320h-128v320z" />
<glyph unicode="&#xe967;" glyph-name="chat-bubble-dots" d="M512 204.8l-204.8-204.8v204.8h-204.8c-56.554 0-102.4 45.846-102.4 102.4v0 512c0 56.32 46.080 102.4 102.4 102.4h819.2c56.554 0 102.4-45.846 102.4-102.4v0-512c0-56.554-45.846-102.4-102.4-102.4v0h-409.6zM256 614.4v-102.4h102.4v102.4h-102.4zM460.8 614.4v-102.4h102.4v102.4h-102.4zM665.6 614.4v-102.4h102.4v102.4h-102.4z" />
<glyph unicode="&#xe968;" glyph-name="wechat" horiz-adv-x="1170" d="M331.429 687.428c0 31.429-20.571 52-52 52-30.857 0-62.286-20.571-62.286-52 0-30.857 31.429-51.429 62.286-51.429 31.429 0 52 20.571 52 51.429zM756 397.714c0 20.571-20.571 41.143-52 41.143-20.571 0-41.143-20.571-41.143-41.143 0-21.143 20.571-41.714 41.143-41.714 31.429 0 52 20.571 52 41.714zM621.143 687.428c0 31.429-20.571 52-51.429 52-31.429 0-62.286-20.571-62.286-52 0-30.857 30.857-51.429 62.286-51.429 30.857 0 51.429 20.571 51.429 51.429zM984 397.714c0 20.571-21.143 41.143-52 41.143-20.571 0-41.143-20.571-41.143-41.143 0-21.143 20.571-41.714 41.143-41.714 30.857 0 52 20.571 52 41.714zM832 624.571c-13.143 1.714-26.286 2.286-40 2.286-196.571 0-352-146.857-352-327.429 0-30.286 4.571-59.429 13.143-86.857-13.143-1.143-25.714-1.714-38.857-1.714-52 0-93.143 10.286-145.143 20.571l-144.571-72.571 41.143 124.571c-103.429 72.571-165.714 166.286-165.714 280 0 197.143 186.286 352 414.286 352 203.429 0 382.286-124 417.714-290.857zM1170.286 304c0-93.143-61.714-176-145.143-238.286l31.429-103.429-113.714 62.286c-41.714-10.286-83.429-21.143-124.571-21.143-197.143 0-352 134.857-352 300.571s154.857 300.571 352 300.571c186.286 0 352-134.857 352-300.571z" />
<glyph unicode="&#xe969;" glyph-name="chat" horiz-adv-x="1344" d="M1140.864 511.264c-8.448 2.624-17.408-1.984-20.096-10.4-2.656-8.416 1.984-17.408 10.4-20.096 125.056-39.84 180.832-99.264 180.832-192.768 0-83.168-75.872-147.712-121.056-178.816-4.352-3.008-6.944-7.904-6.944-13.184v-122.336c-23.36 8.704-64.096 28.48-100.032 68.96-3.744 4.192-9.44 6.112-14.976 5.088-9.12-1.76-18.432-4.256-27.872-6.784-16.32-4.384-33.152-8.928-49.12-8.928-82.176 0-139.712 17.664-198.528 60.896-7.168 5.248-17.12 3.68-22.368-3.424-5.248-7.136-3.712-17.12 3.392-22.368 64.864-47.68 127.872-67.104 217.504-67.104 20.192 0 39.136 5.088 57.44 10.016 5.696 1.568 11.36 3.104 16.96 4.416 59.808-63.168 127.456-77.536 130.4-78.112 1.056-0.224 2.112-0.32 3.2-0.32 3.648 0 7.264 1.248 10.112 3.616 3.744 3.040 5.888 7.584 5.888 12.384v135.648c82.624 58.912 128 129.824 128 200.352 0 108.192-64.544 179.136-203.136 223.264zM1056 528c0 246.272-224.576 432-522.336 432-299.264 0-533.664-189.792-533.664-432.064 0-145.248 102.752-249.312 192-312.288v-212.352c0-5.44 2.752-10.464 7.296-13.44 2.656-1.696 5.664-2.56 8.704-2.56 2.208 0 4.448 0.48 6.56 1.408 4.672 2.080 113.888 51.712 207.328 153.888 40.48-7.52 86.272-14.752 127.808-14.752 302.816 0 506.304 160.832 506.304 400.16zM549.664 159.84c-41.92 0-89.568 8.032-130.656 15.872-5.536 0.992-11.232-0.896-14.976-5.088-65.6-73.984-142.688-120.992-180.032-141.248v194.624c0 5.28-2.592 10.176-6.944 13.184-84.416 58.080-185.056 155.616-185.056 290.752 0 224.352 220.352 400.064 501.664 400.064 279.552 0 490.336-171.968 490.336-400 0-220.224-190.624-368.16-474.336-368.16zM528 592c-35.296 0-64-28.704-64-64s28.704-64 64-64 64 28.704 64 64-28.704 64-64 64zM528 496c-17.632 0-32 14.336-32 32s14.368 32 32 32 32-14.336 32-32-14.368-32-32-32zM752 592c-35.296 0-64-28.704-64-64s28.704-64 64-64 64 28.704 64 64-28.704 64-64 64zM752 496c-17.632 0-32 14.336-32 32s14.368 32 32 32 32-14.336 32-32-14.368-32-32-32zM304 588.96c-35.296 0-64-28.704-64-64s28.704-64 64-64 64 28.704 64 64-28.704 64-64 64zM304 492.96c-17.632 0-32 14.336-32 32s14.368 32 32 32 32-14.336 32-32-14.368-32-32-32z" />
<glyph unicode="&#xe96a;" glyph-name="user-plus" horiz-adv-x="1170" d="M402.286 438.857c-121.143 0-219.429 98.286-219.429 219.429s98.286 219.429 219.429 219.429 219.429-98.286 219.429-219.429-98.286-219.429-219.429-219.429zM950.857 365.714h201.143c9.714 0 18.286-8.571 18.286-18.286v-109.714c0-9.714-8.571-18.286-18.286-18.286h-201.143v-201.143c0-9.714-8.571-18.286-18.286-18.286h-109.714c-9.714 0-18.286 8.571-18.286 18.286v201.143h-201.143c-9.714 0-18.286 8.571-18.286 18.286v109.714c0 9.714 8.571 18.286 18.286 18.286h201.143v201.143c0 9.714 8.571 18.286 18.286 18.286h109.714c9.714 0 18.286-8.571 18.286-18.286v-201.143zM530.286 237.714c0-40 33.143-73.143 73.143-73.143h146.286v-136c-28-20.571-63.429-28.571-97.714-28.571h-499.429c-91.429 0-152.571 54.857-152.571 148 0 129.143 30.286 327.429 197.714 327.429 9.143 0 15.429-4 22.286-9.714 56-42.857 110.286-69.714 182.286-69.714s126.286 26.857 182.286 69.714c6.857 5.714 13.143 9.714 22.286 9.714 48.571 0 91.429-18.286 124-54.857h-127.429c-40 0-73.143-33.143-73.143-73.143v-109.714z" />
<glyph unicode="&#xe96b;" glyph-name="group_add" d="M554 384.667c86 0 256-42 256-128v-86h-512v86c0 86 170 128 256 128zM838 376.667c86-14 186-54 186-120v-86h-128v86c0 50-22 88-58 120zM554 468.667c-70 0-128 58-128 128s58 128 128 128 128-58 128-128-58-128-128-128zM768 468.667c-14 0-26 2-38 6 24 34 38 76 38 122s-14 88-38 122c12 4 24 6 38 6 70 0 128-58 128-128s-58-128-128-128zM342 512.667v-86h-128v-128h-86v128h-128v86h128v128h86v-128h128z" />
<glyph unicode="&#xe96c;" glyph-name="user-add-outline" d="M896 341.334h-256c-23.595 0-42.667 19.115-42.667 42.667s19.072 42.667 42.667 42.667h256c23.595 0 42.667-19.115 42.667-42.667s-19.072-42.667-42.667-42.667zM768 213.334c-23.595 0-42.667 19.115-42.667 42.667v256c0 23.552 19.072 42.667 42.667 42.667s42.667-19.115 42.667-42.667v-256c0-23.552-19.072-42.667-42.667-42.667zM384 682.667c70.571 0 128-57.429 128-128s-57.429-128-128-128-128 57.429-128 128 57.429 128 128 128zM384 768c-117.931 0-213.333-95.488-213.333-213.333s95.403-213.333 213.333-213.333 213.333 95.488 213.333 213.333-95.403 213.333-213.333 213.333zM384 213.334c86.229 0 140.843-32.896 161.408-61.653-29.141-11.093-84.011-23.68-161.408-23.68-84.651 0-136.789 13.013-162.901 23.125 19.584 30.507 75.819 62.208 162.901 62.208zM384 298.667c-160 0-256-85.333-256-170.667 0-42.667 96-85.333 256-85.333 150.101 0 256 42.667 256 85.333s-100.437 170.667-256 170.667z" />
<glyph unicode="&#xe96d;" glyph-name="user-add" d="M384 341.334c58.923 0 112.256 23.893 150.869 62.507 38.571 38.571 62.464 91.904 62.464 150.827s-23.893 112.256-62.464 150.827c-38.613 38.613-91.947 62.507-150.869 62.507s-112.256-23.893-150.869-62.507c-38.571-38.571-62.464-91.904-62.464-150.827s23.893-112.256 62.464-150.827c38.613-38.613 91.947-62.507 150.869-62.507zM384 42.667c150.101 0 256 42.667 256 85.333 0 85.333-100.437 170.667-256 170.667-160 0-256-85.333-256-170.667 0-42.667 96-85.333 256-85.333zM896 426.667h-85.333v85.333c0 23.595-19.072 42.667-42.667 42.667s-42.667-19.072-42.667-42.667v-85.333h-85.333c-23.595 0-42.667-19.072-42.667-42.667s19.072-42.667 42.667-42.667h85.333v-85.333c0-23.595 19.072-42.667 42.667-42.667s42.667 19.072 42.667 42.667v85.333h85.333c23.595 0 42.667 19.072 42.667 42.667s-19.072 42.667-42.667 42.667z" />
<glyph unicode="&#xe9eb;" glyph-name="cool" d="M512-64c282.77 0 512 229.23 512 512s-229.23 512-512 512-512-229.23-512-512 229.23-512 512-512zM512 864c229.75 0 416-186.25 416-416s-186.25-416-416-416-416 186.25-416 416 186.25 416 416 416zM800 704c17.6 0 32-14.4 32-32v-96c0-35.2-28.8-64-64-64h-128c-35.2 0-64 28.8-64 64h-128c0-35.2-28.8-64-64-64h-128c-35.2 0-64 28.8-64 64v96c0 17.6 14.4 32 32 32h192c17.6 0 32-14.4 32-32v-32h128v32c0 17.6 14.4 32 32 32h192zM512 192c93.208 0 174.772 49.818 219.546 124.278l54.88-32.934c-55.966-93.070-157.916-155.344-274.426-155.344-48.458 0-94.384 10.796-135.54 30.082l33.162 55.278c31.354-13.714 65.964-21.36 102.378-21.36z" />
<glyph unicode="&#xea08;" glyph-name="notification" d="M512 864c-111.118 0-215.584-43.272-294.156-121.844s-121.844-183.038-121.844-294.156c0-111.118 43.272-215.584 121.844-294.156s183.038-121.844 294.156-121.844c111.118 0 215.584 43.272 294.156 121.844s121.844 183.038 121.844 294.156c0 111.118-43.272 215.584-121.844 294.156s-183.038 121.844-294.156 121.844zM512 960v0c282.77 0 512-229.23 512-512s-229.23-512-512-512c-282.77 0-512 229.23-512 512s229.23 512 512 512zM448 256h128v-128h-128zM448 768h128v-384h-128z" />
<glyph unicode="&#xea52;" glyph-name="checkbox" d="M896 960h-768c-70.4 0-128-57.6-128-128v-768c0-70.4 57.6-128 128-128h768c70.4 0 128 57.6 128 128v768c0 70.4-57.6 128-128 128zM448 165.49l-237.254 237.256 90.51 90.508 146.744-146.744 306.746 306.746 90.508-90.51-397.254-397.256z" />
</font>
</defs>
</svg>
